<svg width="425" height="42" viewBox="0 0 425 42" fill="none" xmlns="http://www.w3.org/2000/svg">
<path d="M8.05615 0.300176H9.92756L0.700624 10.1776L0.710632 8.12606L8.05615 0.300176ZM8.58655 14.711L2.58204 7.17534L3.92305 6.52485L10.478 14.711H8.58655ZM9.77356e-05 14.711V0.300176H1.43117V14.711H9.77356e-05ZM14.9956 15.0112C13.9415 15.0112 13.0274 14.771 12.2535 14.2907C11.4863 13.8103 10.8992 13.1398 10.4922 12.2792C10.0852 11.4119 9.88174 10.4178 9.88174 9.29694C9.88174 8.16942 10.0886 7.17534 10.5022 6.3147C10.9159 5.45405 11.5096 4.78688 12.2835 4.31319C13.0575 3.8395 13.9615 3.60266 14.9956 3.60266C16.0564 3.60266 16.9704 3.84284 17.7376 4.3232C18.5116 4.80356 19.102 5.47406 19.509 6.33471C19.9159 7.18869 20.1194 8.17609 20.1194 9.29694C20.1194 10.4311 19.9126 11.4285 19.499 12.2892C19.092 13.1498 18.5016 13.8203 17.7276 14.3007C16.9604 14.7744 16.0497 15.0112 14.9956 15.0112ZM14.9956 13.6002C15.7762 13.6002 16.4333 13.4234 16.9671 13.0698C17.5008 12.7095 17.8978 12.2058 18.158 11.5586C18.4248 10.9115 18.5583 10.1576 18.5583 9.29694C18.5583 7.9626 18.2547 6.91515 17.6476 6.15458C17.0405 5.394 16.1565 5.01372 14.9956 5.01372C14.2083 5.01372 13.5478 5.19385 13.0141 5.55412C12.487 5.90772 12.0934 6.40476 11.8332 7.04524C11.573 7.68573 11.4429 8.43629 11.4429 9.29694C11.4429 10.1709 11.5763 10.9315 11.8432 11.5787C12.1168 12.2258 12.5171 12.7262 13.0441 13.0798C13.5779 13.4267 14.2283 13.6002 14.9956 13.6002ZM21.7166 14.711V3.90288H23.0276L27.2407 12.7495L31.4639 3.90288H32.7649V14.711H31.3438V7.04524L27.7111 14.711H26.7804L23.1476 7.04524V14.711H21.7166ZM34.9546 14.711V3.90288H43.5511V14.711H42.08V5.31394H36.4257V14.711H34.9546ZM48.8518 15.0112C48.0645 15.0112 47.3907 14.8678 46.8303 14.5809C46.2765 14.294 45.8596 13.9071 45.5793 13.42C45.2991 12.933 45.159 12.3959 45.159 11.8088C45.159 10.9615 45.4025 10.281 45.8896 9.76729C46.3766 9.25357 47.0504 8.88663 47.9111 8.66646C48.4715 8.52636 49.0786 8.4096 49.7325 8.3162C50.3863 8.21612 51.277 8.0927 52.4045 7.94592C52.5846 7.91923 52.7547 7.89922 52.9149 7.88588C53.075 7.86586 53.2218 7.84251 53.3552 7.81582L52.8348 8.13606C52.8481 7.40885 52.7614 6.81507 52.5746 6.35473C52.3878 5.89438 52.0809 5.55412 51.6539 5.33396C51.2269 5.10712 50.6598 4.9937 49.9526 4.9937C49.1921 4.9937 48.5582 5.16383 48.0512 5.50409C47.5508 5.84434 47.2006 6.36807 47.0004 7.07527L45.5693 6.65495C45.8229 5.68089 46.3232 4.93032 47.0705 4.40326C47.8244 3.86952 48.7918 3.60266 49.9726 3.60266C50.9667 3.60266 51.8074 3.78946 52.4945 4.16308C53.1884 4.53669 53.6754 5.07043 53.9556 5.76428C54.0824 6.05784 54.1658 6.39142 54.2058 6.76503C54.2525 7.13865 54.2759 7.54896 54.2759 7.99596V14.711H52.9649V11.999L53.3452 12.1591C53.0983 12.7729 52.7614 13.2933 52.3344 13.7203C51.9074 14.1472 51.4004 14.4708 50.8133 14.691C50.2262 14.9045 49.5723 15.0112 48.8518 15.0112ZM49.0219 13.7403C49.6891 13.7403 50.2795 13.6202 50.7933 13.38C51.3137 13.1332 51.7306 12.7962 52.0442 12.3692C52.3644 11.9423 52.5746 11.4519 52.6747 10.8981C52.7347 10.6313 52.7714 10.3511 52.7848 10.0575C52.8048 9.75728 52.8148 9.40368 52.8148 8.99671V8.81658L53.3752 9.10679L52.7047 9.19686C51.7373 9.30361 50.9234 9.40368 50.2629 9.49709C49.6024 9.59049 49.0153 9.70724 48.5015 9.84735C47.9545 10.0008 47.5041 10.2343 47.1505 10.5479C46.8036 10.8548 46.6301 11.2751 46.6301 11.8088C46.6301 12.1424 46.7102 12.456 46.8703 12.7495C47.0371 13.0431 47.3006 13.2833 47.6609 13.4701C48.0212 13.6502 48.4749 13.7403 49.0219 13.7403ZM56.2707 14.711V3.90288H57.7418V8.59641H63.8363V3.90288H65.3075V14.711H63.8363V10.0075H57.7418V14.711H56.2707ZM76.092 3.90288V14.711H74.6609V6.29468L68.7364 14.711H67.4955V3.90288H68.9266V12.2492L74.861 3.90288H76.092ZM85.0754 14.711V10.6379H82.5535C81.9331 10.6379 81.3426 10.5912 80.7822 10.4978C79.9749 10.3444 79.3178 9.99746 78.8107 9.45706C78.3037 8.91665 78.0502 8.20278 78.0502 7.31545C78.0502 6.73501 78.1602 6.22129 78.3804 5.77429C78.6072 5.32062 78.9108 4.95034 79.2911 4.66345C79.6714 4.37657 80.1017 4.17309 80.5821 4.053C80.8623 3.98628 81.1458 3.94625 81.4327 3.93291C81.7262 3.91289 82.0532 3.90288 82.4134 3.90288H86.5465L86.5565 14.711H85.0754ZM77.6999 14.711L80.7122 10.1776H82.3434L79.3111 14.711H77.6999ZM82.4735 9.377H85.0754V5.16383H82.4735C81.8397 5.16383 81.346 5.21387 80.9924 5.31394C80.6054 5.43403 80.2718 5.66087 79.9916 5.99445C79.7114 6.32804 79.5713 6.7617 79.5713 7.29543C79.5713 7.81582 79.7114 8.24281 79.9916 8.57639C80.2785 8.90998 80.6588 9.13682 81.1325 9.25691C81.3393 9.30361 81.5528 9.33697 81.7729 9.35698C81.9931 9.37032 82.2266 9.377 82.4735 9.377ZM91.1686 14.711L96.1323 0.300176H98.0838L103.048 14.711H101.516L96.8028 1.12079H97.3833L92.6997 14.711H91.1686ZM93.3803 11.2184V9.83734H100.826V11.2184H93.3803ZM109.698 15.0112C108.29 15.0112 107.089 14.6977 106.095 14.0705C105.101 13.4434 104.347 12.5661 103.833 11.4385C103.32 10.3044 103.063 8.99338 103.063 7.50559C103.063 6.01781 103.32 4.71016 103.833 3.58264C104.347 2.44846 105.101 1.5678 106.095 0.940657C107.089 0.31352 108.29 -4.91512e-05 109.698 -4.91512e-05C111.105 -4.91512e-05 112.306 0.31352 113.3 0.940657C114.301 1.5678 115.058 2.44846 115.572 3.58264C116.086 4.71016 116.343 6.01781 116.343 7.50559C116.343 8.99338 116.086 10.3044 115.572 11.4385C115.058 12.5661 114.301 13.4434 113.3 14.0705C112.306 14.6977 111.105 15.0112 109.698 15.0112ZM109.698 13.6002C110.805 13.6002 111.736 13.3466 112.49 12.8396C113.25 12.3326 113.821 11.622 114.201 10.708C114.588 9.79398 114.781 8.72651 114.781 7.50559C114.781 6.29134 114.588 5.22721 114.201 4.31319C113.821 3.39917 113.25 2.68864 112.49 2.18159C111.736 1.67454 110.805 1.41768 109.698 1.41101C108.604 1.41101 107.676 1.66453 106.916 2.17158C106.155 2.67863 105.585 3.38916 105.204 4.30318C104.824 5.2172 104.631 6.28467 104.624 7.50559C104.617 8.71984 104.804 9.78397 105.184 10.698C105.565 11.612 106.135 12.3225 106.896 12.8296C107.663 13.3366 108.597 13.5935 109.698 13.6002ZM128.248 13.6502L124.786 9.29694L128.248 4.95367L129.139 5.64419L126.227 9.29694L129.139 12.9597L128.248 13.6502ZM124.816 13.6502L121.353 9.29694L124.816 4.95367L125.706 5.64419L122.784 9.29694L125.706 12.9597L124.816 13.6502ZM142.181 14.711H140.7V2.89212L132.764 14.711H131.283V0.300176H132.764V12.109L140.7 0.300176H142.181V14.711ZM144.374 14.711V3.90288H145.845V8.59641H151.94V3.90288H153.411V14.711H151.94V10.0075H145.845V14.711H144.374ZM160.733 14.9212C159.679 15.088 158.715 14.9712 157.841 14.5709C156.967 14.1706 156.276 13.5168 155.769 12.6094C155.262 11.7021 155.009 10.6046 155.009 9.31695C155.009 8.02932 155.262 6.93183 155.769 6.02448C156.276 5.11713 156.967 4.45997 157.841 4.053C158.715 3.64602 159.679 3.52593 160.733 3.69273V0.380236H162.094V3.69273C163.148 3.52593 164.112 3.64602 164.986 4.053C165.86 4.45997 166.551 5.11713 167.058 6.02448C167.565 6.93183 167.818 8.02932 167.818 9.31695C167.818 10.6046 167.565 11.7021 167.058 12.6094C166.551 13.5168 165.86 14.1706 164.986 14.5709C164.112 14.9712 163.148 15.088 162.094 14.9212V19.2144H160.733V14.9212ZM160.733 5.07376C159.986 4.947 159.292 5.02039 158.651 5.29393C158.011 5.5608 157.497 6.03449 157.11 6.715C156.723 7.38884 156.53 8.25615 156.53 9.31695C156.53 10.3777 156.723 11.2451 157.11 11.9189C157.504 12.5927 158.021 13.0631 158.662 13.33C159.309 13.5968 159.999 13.6702 160.733 13.5501V5.07376ZM162.094 13.5501C162.835 13.6702 163.525 13.6002 164.166 13.34C164.806 13.0731 165.32 12.6028 165.707 11.9289C166.1 11.2551 166.297 10.3844 166.297 9.31695C166.297 8.25615 166.104 7.3855 165.717 6.70499C165.33 6.02448 164.816 5.55079 164.176 5.28392C163.535 5.01705 162.841 4.947 162.094 5.07376V13.5501ZM173.927 15.0112C172.873 15.0112 171.959 14.771 171.185 14.2907C170.418 13.8103 169.831 13.1398 169.424 12.2792C169.017 11.4119 168.814 10.4178 168.814 9.29694C168.814 8.16942 169.02 7.17534 169.434 6.3147C169.848 5.45405 170.442 4.78688 171.215 4.31319C171.989 3.8395 172.893 3.60266 173.927 3.60266C174.988 3.60266 175.902 3.84284 176.67 4.3232C177.443 4.80356 178.034 5.47406 178.441 6.33471C178.848 7.18869 179.051 8.17609 179.051 9.29694C179.051 10.4311 178.845 11.4285 178.431 12.2892C178.024 13.1498 177.433 13.8203 176.66 14.3007C175.892 14.7744 174.982 15.0112 173.927 15.0112ZM173.927 13.6002C174.708 13.6002 175.365 13.4234 175.899 13.0698C176.433 12.7095 176.83 12.2058 177.09 11.5586C177.357 10.9115 177.49 10.1576 177.49 9.29694C177.49 7.9626 177.187 6.91515 176.579 6.15458C175.972 5.394 175.088 5.01372 173.927 5.01372C173.14 5.01372 172.48 5.19385 171.946 5.55412C171.419 5.90772 171.025 6.40476 170.765 7.04524C170.505 7.68573 170.375 8.43629 170.375 9.29694C170.375 10.1709 170.508 10.9315 170.775 11.5787C171.049 12.2258 171.449 12.7262 171.976 13.0798C172.51 13.4267 173.16 13.6002 173.927 13.6002ZM185.512 15.0112C184.545 15.0112 183.714 14.7644 183.02 14.2707C182.326 13.7703 181.799 13.0898 181.439 12.2291C181.079 11.3618 180.899 10.3844 180.899 9.29694C180.899 8.18944 181.079 7.2087 181.439 6.35473C181.799 5.49408 182.33 4.82024 183.03 4.33321C183.737 3.84617 184.585 3.60266 185.572 3.60266C186.533 3.60266 187.37 3.84951 188.084 4.34321C188.805 4.83692 189.355 5.51743 189.735 6.38475C190.116 7.2454 190.306 8.21612 190.306 9.29694C190.306 10.3844 190.116 11.3618 189.735 12.2291C189.355 13.0965 188.801 13.777 188.074 14.2707C187.354 14.7644 186.5 15.0112 185.512 15.0112ZM180.648 19.5146V3.90288H181.969V12.039H182.13V19.5146H180.648ZM185.362 13.6402C186.096 13.6402 186.716 13.4534 187.223 13.0798C187.73 12.7062 188.111 12.1924 188.364 11.5386C188.618 10.8781 188.745 10.1309 188.745 9.29694C188.745 8.46298 188.618 7.71908 188.364 7.06526C188.117 6.41143 187.737 5.90105 187.223 5.53411C186.71 5.16049 186.079 4.97369 185.332 4.97369C184.598 4.97369 183.978 5.15716 183.471 5.5241C182.97 5.88437 182.593 6.38808 182.34 7.03524C182.093 7.68239 181.969 8.43629 181.969 9.29694C181.969 10.1509 182.096 10.9048 182.35 11.5586C182.603 12.2125 182.984 12.7228 183.491 13.0898C183.998 13.4567 184.621 13.6402 185.362 13.6402ZM191.893 14.711V3.90288H193.204L197.417 12.7495L201.64 3.90288H202.941V14.711H201.52V7.04524L197.887 14.711H196.957L193.324 7.04524V14.711H191.893ZM208.233 15.0112C207.446 15.0112 206.772 14.8678 206.212 14.5809C205.658 14.294 205.241 13.9071 204.961 13.42C204.681 12.933 204.541 12.3959 204.541 11.8088C204.541 10.9615 204.784 10.281 205.271 9.76729C205.758 9.25357 206.432 8.88663 207.293 8.66646C207.853 8.52636 208.46 8.4096 209.114 8.3162C209.768 8.21612 210.658 8.0927 211.786 7.94592C211.966 7.91923 212.136 7.89922 212.296 7.88588C212.456 7.86586 212.603 7.84251 212.737 7.81582L212.216 8.13606C212.23 7.40885 212.143 6.81507 211.956 6.35473C211.769 5.89438 211.462 5.55412 211.035 5.33396C210.608 5.10712 210.041 4.9937 209.334 4.9937C208.574 4.9937 207.94 5.16383 207.433 5.50409C206.932 5.84434 206.582 6.36807 206.382 7.07527L204.951 6.65495C205.204 5.68089 205.705 4.93032 206.452 4.40326C207.206 3.86952 208.173 3.60266 209.354 3.60266C210.348 3.60266 211.189 3.78946 211.876 4.16308C212.57 4.53669 213.057 5.07043 213.337 5.76428C213.464 6.05784 213.547 6.39142 213.587 6.76503C213.634 7.13865 213.657 7.54896 213.657 7.99596V14.711H212.346V11.999L212.727 12.1591C212.48 12.7729 212.143 13.2933 211.716 13.7203C211.289 14.1472 210.782 14.4708 210.195 14.691C209.608 14.9045 208.954 15.0112 208.233 15.0112ZM208.403 13.7403C209.071 13.7403 209.661 13.6202 210.175 13.38C210.695 13.1332 211.112 12.7962 211.426 12.3692C211.746 11.9423 211.956 11.4519 212.056 10.8981C212.116 10.6313 212.153 10.3511 212.166 10.0575C212.186 9.75728 212.196 9.40368 212.196 8.99671V8.81658L212.757 9.10679L212.086 9.19686C211.119 9.30361 210.305 9.40368 209.644 9.49709C208.984 9.59049 208.397 9.70724 207.883 9.84735C207.336 10.0008 206.886 10.2343 206.532 10.5479C206.185 10.8548 206.012 11.2751 206.012 11.8088C206.012 12.1424 206.092 12.456 206.252 12.7495C206.419 13.0431 206.682 13.2833 207.042 13.4701C207.403 13.6502 207.856 13.7403 208.403 13.7403ZM218.594 14.711V5.26391H214.761V3.90288H223.898V5.26391H220.065V14.711H218.594ZM233.792 3.90288V14.711H232.361V6.29468L226.437 14.711H225.196V3.90288H226.627V12.2492L232.562 3.90288H233.792ZM235.991 14.711L236.001 3.90288H237.482V9.10679L242.306 3.90288H244.267L239.203 9.30694L244.928 14.711H242.786L237.482 9.50709V14.711H235.991ZM248.422 15.0112C247.635 15.0112 246.961 14.8678 246.401 14.5809C245.847 14.294 245.43 13.9071 245.15 13.42C244.869 12.933 244.729 12.3959 244.729 11.8088C244.729 10.9615 244.973 10.281 245.46 9.76729C245.947 9.25357 246.621 8.88663 247.481 8.66646C248.042 8.52636 248.649 8.4096 249.303 8.3162C249.957 8.21612 250.847 8.0927 251.975 7.94592C252.155 7.91923 252.325 7.89922 252.485 7.88588C252.645 7.86586 252.792 7.84251 252.925 7.81582L252.405 8.13606C252.418 7.40885 252.332 6.81507 252.145 6.35473C251.958 5.89438 251.651 5.55412 251.224 5.33396C250.797 5.10712 250.23 4.9937 249.523 4.9937C248.762 4.9937 248.129 5.16383 247.621 5.50409C247.121 5.84434 246.771 6.36807 246.571 7.07527L245.14 6.65495C245.393 5.68089 245.893 4.93032 246.641 4.40326C247.395 3.86952 248.362 3.60266 249.543 3.60266C250.537 3.60266 251.378 3.78946 252.065 4.16308C252.759 4.53669 253.246 5.07043 253.526 5.76428C253.653 6.05784 253.736 6.39142 253.776 6.76503C253.823 7.13865 253.846 7.54896 253.846 7.99596V14.711H252.535V11.999L252.915 12.1591C252.669 12.7729 252.332 13.2933 251.905 13.7203C251.478 14.1472 250.971 14.4708 250.384 14.691C249.796 14.9045 249.143 15.0112 248.422 15.0112ZM248.592 13.7403C249.259 13.7403 249.85 13.6202 250.364 13.38C250.884 13.1332 251.301 12.7962 251.614 12.3692C251.935 11.9423 252.145 11.4519 252.245 10.8981C252.305 10.6313 252.342 10.3511 252.355 10.0575C252.375 9.75728 252.385 9.40368 252.385 8.99671V8.81658L252.945 9.10679L252.275 9.19686C251.308 9.30361 250.494 9.40368 249.833 9.49709C249.173 9.59049 248.586 9.70724 248.072 9.84735C247.525 10.0008 247.074 10.2343 246.721 10.5479C246.374 10.8548 246.2 11.2751 246.2 11.8088C246.2 12.1424 246.28 12.456 246.441 12.7495C246.607 13.0431 246.871 13.2833 247.231 13.4701C247.591 13.6502 248.045 13.7403 248.592 13.7403ZM256.672 13.6502L255.781 12.9597L258.693 9.29694L255.781 5.64419L256.672 4.95367L260.134 9.29694L256.672 13.6502ZM260.104 13.6502L259.213 12.9597L262.136 9.29694L259.213 5.64419L260.104 4.95367L263.567 9.29694L260.104 13.6502ZM273.882 15.0112C272.827 15.0112 271.913 14.771 271.139 14.2907C270.372 13.8103 269.785 13.1398 269.378 12.2792C268.971 11.4119 268.768 10.4178 268.768 9.29694C268.768 8.16942 268.974 7.17534 269.388 6.3147C269.802 5.45405 270.396 4.78688 271.169 4.31319C271.943 3.8395 272.847 3.60266 273.882 3.60266C274.942 3.60266 275.856 3.84284 276.624 4.3232C277.397 4.80356 277.988 5.47406 278.395 6.33471C278.802 7.18869 279.005 8.17609 279.005 9.29694C279.005 10.4311 278.799 11.4285 278.385 12.2892C277.978 13.1498 277.387 13.8203 276.614 14.3007C275.846 14.7744 274.936 15.0112 273.882 15.0112ZM273.882 13.6002C274.662 13.6002 275.319 13.4234 275.853 13.0698C276.387 12.7095 276.784 12.2058 277.044 11.5586C277.311 10.9115 277.444 10.1576 277.444 9.29694C277.444 7.9626 277.141 6.91515 276.533 6.15458C275.926 5.394 275.042 5.01372 273.882 5.01372C273.094 5.01372 272.434 5.19385 271.9 5.55412C271.373 5.90772 270.979 6.40476 270.719 7.04524C270.459 7.68573 270.329 8.43629 270.329 9.29694C270.329 10.1709 270.462 10.9315 270.729 11.5787C271.003 12.2258 271.403 12.7262 271.93 13.0798C272.464 13.4267 273.114 13.6002 273.882 13.6002ZM285.096 15.0112C284.035 15.0112 283.124 14.771 282.364 14.2907C281.603 13.8103 281.023 13.1398 280.623 12.2792C280.229 11.4185 280.025 10.4278 280.012 9.30694C280.025 8.16609 280.232 7.16867 280.633 6.3147C281.033 5.45405 281.613 4.78688 282.374 4.31319C283.141 3.8395 284.052 3.60266 285.106 3.60266C285.826 3.60266 286.494 3.72275 287.107 3.96293C287.721 4.20311 288.245 4.55004 288.679 5.00371C289.112 5.45071 289.429 5.98111 289.629 6.59491L288.188 7.05525C287.935 6.41477 287.534 5.91439 286.987 5.55412C286.44 5.19385 285.81 5.01372 285.096 5.01372C283.942 5.01372 283.068 5.40068 282.474 6.17459C281.887 6.9485 281.587 7.99262 281.573 9.30694C281.58 10.1809 281.717 10.9415 281.984 11.5887C282.25 12.2291 282.647 12.7262 283.174 13.0798C283.701 13.4267 284.342 13.6002 285.096 13.6002C285.823 13.6002 286.444 13.4334 286.957 13.0998C287.478 12.7662 287.875 12.2725 288.148 11.6187L289.629 12.059C289.229 13.0197 288.642 13.7536 287.868 14.2607C287.094 14.761 286.17 15.0112 285.096 15.0112ZM291.085 14.711V3.90288H292.556V8.59641H298.65V3.90288H300.121V14.711H298.65V10.0075H292.556V14.711H291.085ZM306.833 15.0112C305.779 15.0112 304.865 14.771 304.091 14.2907C303.324 13.8103 302.736 13.1398 302.329 12.2792C301.922 11.4119 301.719 10.4178 301.719 9.29694C301.719 8.16942 301.926 7.17534 302.339 6.3147C302.753 5.45405 303.347 4.78688 304.121 4.31319C304.895 3.8395 305.799 3.60266 306.833 3.60266C307.894 3.60266 308.808 3.84284 309.575 4.3232C310.349 4.80356 310.939 5.47406 311.346 6.33471C311.753 7.18869 311.957 8.17609 311.957 9.29694C311.957 10.4311 311.75 11.4285 311.336 12.2892C310.929 13.1498 310.339 13.8203 309.565 14.3007C308.798 14.7744 307.887 15.0112 306.833 15.0112ZM306.833 13.6002C307.613 13.6002 308.271 13.4234 308.804 13.0698C309.338 12.7095 309.735 12.2058 309.995 11.5586C310.262 10.9115 310.396 10.1576 310.396 9.29694C310.396 7.9626 310.092 6.91515 309.485 6.15458C308.878 5.394 307.994 5.01372 306.833 5.01372C306.046 5.01372 305.385 5.19385 304.851 5.55412C304.324 5.90772 303.931 6.40476 303.67 7.04524C303.41 7.68573 303.28 8.43629 303.28 9.29694C303.28 10.1709 303.414 10.9315 303.68 11.5787C303.954 12.2258 304.354 12.7262 304.881 13.0798C305.415 13.4267 306.066 13.6002 306.833 13.6002ZM313.554 14.711V3.90288H318.007C318.681 3.90288 319.258 3.96626 319.738 4.09303C320.352 4.26649 320.843 4.60007 321.21 5.09378C321.577 5.58081 321.76 6.16792 321.76 6.8551C321.76 7.23539 321.7 7.57898 321.58 7.88588C321.466 8.1861 321.303 8.44963 321.089 8.67647C320.896 8.88996 320.669 9.05676 320.409 9.17685C320.622 9.21688 320.853 9.31028 321.099 9.45706C321.486 9.69057 321.78 10.0008 321.98 10.3878C322.18 10.768 322.28 11.2284 322.28 11.7688C322.28 12.496 322.107 13.0965 321.76 13.5701C321.413 14.0438 320.936 14.3674 320.329 14.5409C320.089 14.6076 319.825 14.6543 319.538 14.681C319.251 14.701 318.935 14.711 318.588 14.711H313.554ZM318.518 13.4601C318.671 13.4601 318.851 13.4501 319.058 13.43C319.271 13.4034 319.458 13.37 319.618 13.33C319.999 13.2366 320.282 13.0431 320.469 12.7495C320.662 12.456 320.759 12.1157 320.759 11.7288C320.759 11.2617 320.619 10.8781 320.339 10.5779C320.065 10.271 319.698 10.0809 319.238 10.0075C319.038 9.96077 318.728 9.93742 318.307 9.93742H315.035V13.4601H318.518ZM318.057 8.67647C318.257 8.67647 318.461 8.66646 318.668 8.64645C318.874 8.61976 319.055 8.5764 319.208 8.51635C319.542 8.40293 319.792 8.20278 319.959 7.9159C320.132 7.62902 320.219 7.3021 320.219 6.93516C320.219 6.55488 320.125 6.22129 319.939 5.93441C319.758 5.64753 319.498 5.44738 319.158 5.33396C318.838 5.22054 318.404 5.16383 317.857 5.16383H315.035V8.67647H318.057ZM326.786 15.0112C325.999 15.0112 325.325 14.8678 324.765 14.5809C324.211 14.294 323.794 13.9071 323.514 13.42C323.234 12.933 323.094 12.3959 323.094 11.8088C323.094 10.9615 323.337 10.281 323.824 9.76729C324.311 9.25357 324.985 8.88663 325.846 8.66646C326.406 8.52636 327.013 8.4096 327.667 8.3162C328.321 8.21612 329.212 8.0927 330.339 7.94592C330.519 7.91923 330.689 7.89922 330.849 7.88588C331.01 7.86586 331.156 7.84251 331.29 7.81582L330.769 8.13606C330.783 7.40885 330.696 6.81507 330.509 6.35473C330.322 5.89438 330.016 5.55412 329.589 5.33396C329.162 5.10712 328.594 4.9937 327.887 4.9937C327.127 4.9937 326.493 5.16383 325.986 5.50409C325.485 5.84434 325.135 6.36807 324.935 7.07527L323.504 6.65495C323.757 5.68089 324.258 4.93032 325.005 4.40326C325.759 3.86952 326.726 3.60266 327.907 3.60266C328.901 3.60266 329.742 3.78946 330.429 4.16308C331.123 4.53669 331.61 5.07043 331.89 5.76428C332.017 6.05784 332.1 6.39142 332.14 6.76503C332.187 7.13865 332.21 7.54896 332.21 7.99596V14.711H330.9V11.999L331.28 12.1591C331.033 12.7729 330.696 13.2933 330.269 13.7203C329.842 14.1472 329.335 14.4708 328.748 14.691C328.161 14.9045 327.507 15.0112 326.786 15.0112ZM326.957 13.7403C327.624 13.7403 328.214 13.6202 328.728 13.38C329.248 13.1332 329.665 12.7962 329.979 12.3692C330.299 11.9423 330.509 11.4519 330.609 10.8981C330.669 10.6313 330.706 10.3511 330.719 10.0575C330.739 9.75728 330.749 9.40368 330.749 8.99671V8.81658L331.31 9.10679L330.639 9.19686C329.672 9.30361 328.858 9.40368 328.197 9.49709C327.537 9.59049 326.95 9.70724 326.436 9.84735C325.889 10.0008 325.439 10.2343 325.085 10.5479C324.738 10.8548 324.565 11.2751 324.565 11.8088C324.565 12.1424 324.645 12.456 324.805 12.7495C324.972 13.0431 325.235 13.2833 325.596 13.4701C325.956 13.6502 326.409 13.7403 326.957 13.7403ZM334.205 14.711V3.90288H335.676V8.59641H341.771V3.90288H343.242V14.711H341.771V10.0075H335.676V14.711H334.205ZM348.532 15.0112C347.745 15.0112 347.071 14.8678 346.511 14.5809C345.957 14.294 345.54 13.9071 345.26 13.42C344.98 12.933 344.84 12.3959 344.84 11.8088C344.84 10.9615 345.083 10.281 345.57 9.76729C346.057 9.25357 346.731 8.88663 347.592 8.66646C348.152 8.52636 348.759 8.4096 349.413 8.3162C350.067 8.21612 350.958 8.0927 352.085 7.94592C352.265 7.91923 352.435 7.89922 352.596 7.88588C352.756 7.86586 352.902 7.84251 353.036 7.81582L352.515 8.13606C352.529 7.40885 352.442 6.81507 352.255 6.35473C352.068 5.89438 351.762 5.55412 351.335 5.33396C350.908 5.10712 350.34 4.9937 349.633 4.9937C348.873 4.9937 348.239 5.16383 347.732 5.50409C347.231 5.84434 346.881 6.36807 346.681 7.07527L345.25 6.65495C345.504 5.68089 346.004 4.93032 346.751 4.40326C347.505 3.86952 348.472 3.60266 349.653 3.60266C350.647 3.60266 351.488 3.78946 352.175 4.16308C352.869 4.53669 353.356 5.07043 353.636 5.76428C353.763 6.05784 353.846 6.39142 353.886 6.76503C353.933 7.13865 353.957 7.54896 353.957 7.99596V14.711H352.646V11.999L353.026 12.1591C352.779 12.7729 352.442 13.2933 352.015 13.7203C351.588 14.1472 351.081 14.4708 350.494 14.691C349.907 14.9045 349.253 15.0112 348.532 15.0112ZM348.703 13.7403C349.37 13.7403 349.96 13.6202 350.474 13.38C350.994 13.1332 351.411 12.7962 351.725 12.3692C352.045 11.9423 352.255 11.4519 352.355 10.8981C352.415 10.6313 352.452 10.3511 352.465 10.0575C352.485 9.75728 352.495 9.40368 352.495 8.99671V8.81658L353.056 9.10679L352.385 9.19686C351.418 9.30361 350.604 9.40368 349.944 9.49709C349.283 9.59049 348.696 9.70724 348.182 9.84735C347.635 10.0008 347.185 10.2343 346.831 10.5479C346.484 10.8548 346.311 11.2751 346.311 11.8088C346.311 12.1424 346.391 12.456 346.551 12.7495C346.718 13.0431 346.981 13.2833 347.342 13.4701C347.702 13.6502 348.156 13.7403 348.703 13.7403ZM359.358 14.711V3.90288H363.811C364.485 3.90288 365.062 3.96626 365.542 4.09303C366.156 4.26649 366.647 4.60007 367.014 5.09378C367.38 5.58081 367.564 6.16792 367.564 6.8551C367.564 7.23539 367.504 7.57898 367.384 7.88588C367.27 8.1861 367.107 8.44963 366.893 8.67647C366.7 8.88996 366.473 9.05676 366.213 9.17685C366.426 9.21688 366.657 9.31028 366.903 9.45706C367.29 9.69057 367.584 10.0008 367.784 10.3878C367.984 10.768 368.084 11.2284 368.084 11.7688C368.084 12.496 367.911 13.0965 367.564 13.5701C367.217 14.0438 366.74 14.3674 366.133 14.5409C365.893 14.6076 365.629 14.6543 365.342 14.681C365.055 14.701 364.738 14.711 364.392 14.711H359.358ZM364.321 13.4601C364.475 13.4601 364.655 13.4501 364.862 13.43C365.075 13.4034 365.262 13.37 365.422 13.33C365.803 13.2366 366.086 13.0431 366.273 12.7495C366.466 12.456 366.563 12.1157 366.563 11.7288C366.563 11.2617 366.423 10.8781 366.143 10.5779C365.869 10.271 365.502 10.0809 365.042 10.0075C364.842 9.96077 364.532 9.93742 364.111 9.93742H360.839V13.4601H364.321ZM363.861 8.67647C364.061 8.67647 364.265 8.66646 364.472 8.64645C364.678 8.61976 364.859 8.5764 365.012 8.51635C365.346 8.40293 365.596 8.20278 365.763 7.9159C365.936 7.62902 366.023 7.3021 366.023 6.93516C366.023 6.55488 365.929 6.22129 365.743 5.93441C365.562 5.64753 365.302 5.44738 364.962 5.33396C364.642 5.22054 364.208 5.16383 363.661 5.16383H360.839V8.67647H363.861ZM375.416 14.711V1.94141L372.704 3.57264V1.92139L375.416 0.300176H376.908V14.711H375.416ZM384.846 0.00995764C385.74 0.00995764 386.558 0.230123 387.298 0.670454C388.046 1.10411 388.636 1.70123 389.07 2.4618C389.503 3.22237 389.72 4.063 389.72 4.9837V9.97745C389.72 10.9315 389.503 11.7921 389.07 12.5594C388.636 13.32 388.039 13.9204 387.278 14.3607C386.524 14.7944 385.677 15.0112 384.736 15.0112C383.916 15.0112 383.152 14.8311 382.445 14.4708C381.744 14.1106 381.17 13.6068 380.723 12.9597L381.854 12.029C382.168 12.5094 382.578 12.893 383.085 13.1799C383.599 13.4667 384.149 13.6102 384.736 13.6102C385.39 13.6102 385.984 13.4501 386.518 13.1298C387.058 12.8029 387.478 12.3726 387.779 11.8388C388.079 11.3051 388.229 10.728 388.229 10.1075V6.96518L388.599 7.3855C388.172 8.05934 387.615 8.59641 386.928 8.99671C386.248 9.39701 385.507 9.59716 384.706 9.59716C383.826 9.59716 383.025 9.387 382.305 8.96669C381.584 8.5397 381.014 7.9626 380.593 7.23539C380.173 6.50817 379.963 5.70424 379.963 4.82358C379.963 3.94958 380.183 3.14565 380.623 2.41176C381.07 1.67788 381.664 1.09411 382.405 0.660447C383.152 0.226787 383.966 0.00995764 384.846 0.00995764ZM384.846 1.44103C384.226 1.44103 383.656 1.59115 383.135 1.89137C382.615 2.1916 382.201 2.60191 381.894 3.1223C381.594 3.64269 381.444 4.20978 381.444 4.82358C381.444 5.44404 381.594 6.01447 381.894 6.53486C382.201 7.05525 382.615 7.4689 383.135 7.77579C383.656 8.07602 384.223 8.22613 384.836 8.22613C385.45 8.22613 386.017 8.07602 386.538 7.77579C387.058 7.4689 387.468 7.05525 387.769 6.53486C388.076 6.01447 388.229 5.44404 388.229 4.82358C388.229 4.21645 388.079 3.6527 387.779 3.1323C387.478 2.61191 387.068 2.20161 386.548 1.90138C386.027 1.59448 385.46 1.44103 384.846 1.44103ZM396.167 15.0112C395.433 15.0112 394.746 14.8611 394.106 14.5609C393.465 14.254 392.922 13.8303 392.475 13.2899C392.028 12.7429 391.707 12.1191 391.514 11.4185L392.925 11.0382C393.052 11.5453 393.278 11.9923 393.605 12.3793C393.939 12.7595 394.333 13.0531 394.786 13.2599C395.24 13.4667 395.714 13.5701 396.207 13.5701C396.828 13.5701 397.398 13.4167 397.919 13.1098C398.439 12.8029 398.849 12.3893 399.15 11.8689C399.45 11.3485 399.6 10.7847 399.6 10.1776C399.6 9.55713 399.443 8.99004 399.13 8.47632C398.823 7.95593 398.409 7.54562 397.889 7.24539C397.368 6.94517 396.808 6.79506 396.207 6.79506C395.56 6.79506 394.986 6.93516 394.486 7.21537C393.992 7.49558 393.585 7.87587 393.265 8.35623L391.924 7.79581L392.364 0.300176H400.06V1.71124H393.015L393.745 1.02072L393.355 7.41552L392.985 6.92515C393.392 6.45146 393.889 6.08119 394.476 5.81432C395.07 5.54745 395.69 5.41402 396.337 5.41402C397.211 5.41402 398.009 5.62751 398.729 6.0545C399.456 6.47482 400.027 7.04858 400.441 7.77579C400.861 8.50301 401.071 9.30361 401.071 10.1776C401.071 11.0449 400.847 11.8489 400.4 12.5894C399.96 13.33 399.363 13.9204 398.609 14.3607C397.855 14.7944 397.041 15.0112 396.167 15.0112ZM403.655 14.711L408.959 1.73125H402.284V0.300176H410.531V1.73125L405.237 14.711H403.655ZM415.737 14.711V3.90288H423.143V5.31394H417.209V14.711H415.737ZM423.969 14.8211C423.776 14.8211 423.602 14.7777 423.449 14.691C423.295 14.6043 423.172 14.4842 423.078 14.3307C422.992 14.1706 422.948 13.9971 422.948 13.8103C422.948 13.6168 422.992 13.4434 423.078 13.2899C423.172 13.1365 423.295 13.0164 423.449 12.9297C423.602 12.8363 423.776 12.7896 423.969 12.7896C424.162 12.7896 424.336 12.8363 424.489 12.9297C424.649 13.0164 424.773 13.1365 424.86 13.2899C424.953 13.4434 425 13.6168 425 13.8103C425 13.9971 424.953 14.1706 424.86 14.3307C424.773 14.4842 424.649 14.6043 424.489 14.691C424.336 14.7777 424.162 14.8211 423.969 14.8211ZM9.77356e-05 36.7275V22.3167H5.56428C6.35154 22.3167 7.04873 22.4835 7.65585 22.8171C8.26964 23.144 8.74333 23.591 9.07692 24.1581C9.4105 24.7252 9.57729 25.349 9.57729 26.0295C9.57729 26.5366 9.48389 27.0169 9.29708 27.4706C9.11028 27.9176 8.84341 28.3046 8.49648 28.6315C8.15623 28.9517 7.75593 29.1919 7.29558 29.352L7.27556 28.8616C7.89603 29.0418 8.42977 29.312 8.87677 29.6722C9.33044 30.0325 9.67737 30.4695 9.91755 30.9832C10.1577 31.4903 10.2778 32.0574 10.2778 32.6845C10.2778 33.5118 10.101 34.229 9.74742 34.8361C9.39382 35.4432 8.89678 35.9103 8.2563 36.2372C7.61582 36.5641 6.87193 36.7275 6.02462 36.7275H9.77356e-05ZM5.66435 35.3165C6.25146 35.3165 6.77852 35.2131 7.24554 35.0063C7.71256 34.7928 8.0795 34.4892 8.34637 34.0956C8.61991 33.7019 8.75668 33.2383 8.75668 32.7045C8.75668 32.1775 8.63325 31.6971 8.3864 31.2634C8.13955 30.8298 7.79929 30.4862 7.36563 30.2327C6.93864 29.9791 6.46162 29.8524 5.93456 29.8524H1.48121V35.3165H5.66435ZM5.55427 28.4613C6.01462 28.4613 6.43493 28.3579 6.81522 28.1511C7.1955 27.9376 7.49573 27.6441 7.7159 27.2704C7.94273 26.8968 8.05615 26.4765 8.05615 26.0095C8.05615 25.5625 7.9494 25.1655 7.73591 24.8186C7.52242 24.4717 7.22553 24.2015 6.84524 24.008C6.46496 23.8078 6.03463 23.7078 5.55427 23.7078H1.48121V28.4613H5.55427ZM10.4736 36.7275L14.6968 31.2634L10.5637 25.9194H12.325L15.5574 30.1326L18.7598 25.9194H20.5211L16.388 31.2634L20.6212 36.7275H18.8499L15.5574 32.3943L12.2449 36.7275H10.4736ZM25.7513 37.0278C24.6972 37.0278 23.7832 36.7876 23.0093 36.3072C22.242 35.8269 21.6549 35.1564 21.2479 34.2957C20.841 33.4284 20.6375 32.4343 20.6375 31.3135C20.6375 30.186 20.8443 29.1919 21.2579 28.3312C21.6716 27.4706 22.2654 26.8034 23.0393 26.3297C23.8132 25.856 24.7172 25.6192 25.7513 25.6192C26.8121 25.6192 27.7261 25.8594 28.4934 26.3397C29.2673 26.8201 29.8577 27.4906 30.2647 28.3513C30.6717 29.2052 30.8752 30.1926 30.8752 31.3135C30.8752 32.4477 30.6683 33.4451 30.2547 34.3057C29.8477 35.1664 29.2573 35.8369 28.4834 36.3172C27.7161 36.7909 26.8054 37.0278 25.7513 37.0278ZM25.7513 35.6167C26.5319 35.6167 27.1891 35.4399 27.7228 35.0863C28.2565 34.726 28.6535 34.2223 28.9137 33.5752C29.1806 32.928 29.314 32.1741 29.314 31.3135C29.314 29.9791 29.0104 28.9317 28.4033 28.1711C27.7962 27.4105 26.9122 27.0303 25.7513 27.0303C24.9641 27.0303 24.3036 27.2104 23.7698 27.5707C23.2428 27.9243 22.8491 28.4213 22.5889 29.0618C22.3287 29.7023 22.1987 30.4528 22.1987 31.3135C22.1987 32.1875 22.3321 32.948 22.599 33.5952C22.8725 34.2423 23.2728 34.7427 23.7999 35.0963C24.3336 35.4432 24.9841 35.6167 25.7513 35.6167ZM31.6817 35.4666C32.0887 35.4666 32.4123 35.3832 32.6524 35.2164C32.8993 35.0429 33.0994 34.7794 33.2529 34.4258C33.4063 34.0655 33.5398 33.5785 33.6532 32.9647C33.8133 32.1574 33.9367 31.2401 34.0235 30.2127C34.1102 29.1852 34.1936 27.7541 34.2737 25.9194H41.419V35.4666H42.4598V39.1294H41.0387V36.7275H33.0928V39.1294H31.6817V35.4666ZM34.1736 35.4666H39.9579V27.1804H35.6347C35.568 28.5214 35.4879 29.7223 35.3945 30.7831C35.3011 31.8372 35.1777 32.7079 35.0242 33.395C34.8975 33.9555 34.7774 34.3891 34.664 34.696C34.5505 35.0029 34.3871 35.2598 34.1736 35.4666ZM52.45 25.9194V36.7275H51.0189V28.3112L45.0944 36.7275H43.8535V25.9194H45.2846V34.2657L51.2191 25.9194H52.45ZM57.5906 36.7275V27.2804H53.7577V25.9194H62.8945V27.2804H59.0617V36.7275H57.5906ZM67.5987 36.7275V25.9194H72.0521C72.7259 25.9194 73.303 25.9828 73.7834 26.1096C74.3971 26.283 74.8875 26.6166 75.2545 27.1103C75.6214 27.5974 75.8049 28.1845 75.8049 28.8716C75.8049 29.2519 75.7448 29.5955 75.6247 29.9024C75.5113 30.2026 75.3479 30.4662 75.1344 30.693C74.9409 30.9065 74.7141 31.0733 74.4539 31.1934C74.6674 31.2334 74.8975 31.3268 75.1444 31.4736C75.5313 31.7071 75.8249 32.0173 76.025 32.4043C76.2252 32.7846 76.3253 33.2449 76.3253 33.7853C76.3253 34.5125 76.1518 35.113 75.8049 35.5867C75.4579 36.0604 74.9809 36.384 74.3738 36.5574C74.1336 36.6241 73.8701 36.6708 73.5832 36.6975C73.2963 36.7175 72.9794 36.7275 72.6325 36.7275H67.5987ZM72.5624 35.4766C72.7159 35.4766 72.896 35.4666 73.1028 35.4466C73.3163 35.4199 73.5031 35.3865 73.6633 35.3465C74.0435 35.2531 74.3271 35.0596 74.5139 34.7661C74.7074 34.4725 74.8041 34.1323 74.8041 33.7453C74.8041 33.2783 74.664 32.8947 74.3838 32.5944C74.1103 32.2875 73.7433 32.0974 73.283 32.024C73.0828 31.9773 72.7726 31.954 72.3523 31.954H69.0798V35.4766H72.5624ZM72.1021 30.693C72.3022 30.693 72.5057 30.683 72.7125 30.663C72.9194 30.6363 73.0995 30.5929 73.253 30.5329C73.5865 30.4195 73.8367 30.2193 74.0035 29.9324C74.177 29.6456 74.2637 29.3186 74.2637 28.9517C74.2637 28.5714 74.1703 28.2378 73.9835 27.951C73.8034 27.6641 73.5432 27.4639 73.2029 27.3505C72.8827 27.2371 72.449 27.1804 71.9019 27.1804H69.0798V30.693H72.1021Z" fill="#030B39"/>
<path d="M85.9991 37.0278C85.0317 37.0278 84.2011 36.7809 83.5072 36.2872C82.8134 35.7868 82.2863 35.1063 81.926 34.2457C81.5658 33.3784 81.3856 32.401 81.3856 31.3135C81.3856 30.206 81.5658 29.2252 81.926 28.3713C82.2863 27.5106 82.8167 26.8368 83.5172 26.3497C84.2244 25.8627 85.0717 25.6192 86.0591 25.6192C87.0199 25.6192 87.8572 25.8661 88.571 26.3598C89.2916 26.8535 89.842 27.534 90.2223 28.4013C90.6025 29.2619 90.7927 30.2327 90.7927 31.3135C90.7927 32.401 90.6025 33.3784 90.2223 34.2457C89.842 35.113 89.2882 35.7935 88.561 36.2872C87.8405 36.7809 86.9865 37.0278 85.9991 37.0278ZM81.1354 41.5312V25.9194H82.4564V34.0555H82.6165V41.5312H81.1354ZM85.849 35.6567C86.5829 35.6567 87.2033 35.4699 87.7104 35.0963C88.2174 34.7227 88.5977 34.209 88.8512 33.5552C89.1048 32.8947 89.2315 32.1474 89.2315 31.3135C89.2315 30.4795 89.1048 29.7356 88.8512 29.0818C88.6044 28.428 88.2241 27.9176 87.7104 27.5507C87.1967 27.177 86.5662 26.9902 85.819 26.9902C85.0851 26.9902 84.4646 27.1737 83.9576 27.5406C83.4572 27.9009 83.0802 28.4046 82.8267 29.0518C82.5799 29.6989 82.4564 30.4528 82.4564 31.3135C82.4564 32.1675 82.5832 32.9214 82.8367 33.5752C83.0902 34.229 83.4705 34.7394 83.9776 35.1063C84.4846 35.4733 85.1084 35.6567 85.849 35.6567ZM96.9633 37.0278C95.9225 37.0278 95.0118 36.7976 94.2312 36.3373C93.4506 35.8702 92.8468 35.2097 92.4199 34.3558C91.9995 33.5018 91.7894 32.5077 91.7894 31.3735C91.7894 30.1993 91.9995 29.1819 92.4199 28.3212C92.8402 27.4539 93.4339 26.7867 94.2012 26.3197C94.9684 25.8527 95.8691 25.6192 96.9032 25.6192C97.964 25.6192 98.8714 25.8627 99.6253 26.3497C100.386 26.8368 100.96 27.5406 101.347 28.4613C101.734 29.382 101.91 30.4728 101.877 31.7338H100.376V31.2134C100.356 30.2794 100.216 29.4988 99.9555 28.8716C99.6953 28.2445 99.3117 27.7708 98.8047 27.4506C98.2976 27.1303 97.6771 26.9702 96.9433 26.9702C96.176 26.9702 95.5222 27.1403 94.9818 27.4806C94.448 27.8142 94.0411 28.3079 93.7609 28.9617C93.4873 29.6089 93.3506 30.3961 93.3506 31.3235C93.3506 32.2308 93.4873 33.0048 93.7609 33.6452C94.0411 34.2857 94.448 34.7761 94.9818 35.1163C95.5155 35.4499 96.156 35.6167 96.9032 35.6167C97.6705 35.6167 98.3443 35.4399 98.9247 35.0863C99.5052 34.7327 99.9622 34.2157 100.296 33.5351L101.667 34.0655C101.387 34.6927 101.01 35.2298 100.536 35.6768C100.069 36.1171 99.5285 36.454 98.9147 36.6875C98.3076 36.9144 97.6571 37.0278 96.9633 37.0278ZM92.8302 31.7338V30.5029H101.086V31.7338H92.8302ZM108.071 37.0278C107.03 37.0278 106.119 36.7976 105.339 36.3373C104.558 35.8702 103.954 35.2097 103.527 34.3558C103.107 33.5018 102.897 32.5077 102.897 31.3735C102.897 30.1993 103.107 29.1819 103.527 28.3212C103.948 27.4539 104.542 26.7867 105.309 26.3197C106.076 25.8527 106.977 25.6192 108.011 25.6192C109.072 25.6192 109.979 25.8627 110.733 26.3497C111.493 26.8368 112.067 27.5406 112.454 28.4613C112.841 29.382 113.018 30.4728 112.985 31.7338H111.483V31.2134C111.463 30.2794 111.323 29.4988 111.063 28.8716C110.803 28.2445 110.419 27.7708 109.912 27.4506C109.405 27.1303 108.785 26.9702 108.051 26.9702C107.284 26.9702 106.63 27.1403 106.089 27.4806C105.556 27.8142 105.149 28.3079 104.868 28.9617C104.595 29.6089 104.458 30.3961 104.458 31.3235C104.458 32.2308 104.595 33.0048 104.868 33.6452C105.149 34.2857 105.556 34.7761 106.089 35.1163C106.623 35.4499 107.264 35.6167 108.011 35.6167C108.778 35.6167 109.452 35.4399 110.032 35.0863C110.613 34.7327 111.07 34.2157 111.403 33.5351L112.774 34.0655C112.494 34.6927 112.117 35.2298 111.644 35.6768C111.177 36.1171 110.636 36.454 110.022 36.6875C109.415 36.9144 108.765 37.0278 108.071 37.0278ZM103.938 31.7338V30.5029H112.194V31.7338H103.938ZM119.088 37.0278C118.028 37.0278 117.117 36.7876 116.356 36.3072C115.596 35.8269 115.015 35.1564 114.615 34.2957C114.221 33.4351 114.018 32.4443 114.005 31.3235C114.018 30.1826 114.225 29.1852 114.625 28.3312C115.025 27.4706 115.606 26.8034 116.366 26.3297C117.134 25.856 118.044 25.6192 119.098 25.6192C119.819 25.6192 120.486 25.7393 121.1 25.9795C121.714 26.2197 122.237 26.5666 122.671 27.0203C123.105 27.4673 123.422 27.9977 123.622 28.6114L122.181 29.0718C121.927 28.4313 121.527 27.9309 120.98 27.5707C120.433 27.2104 119.802 27.0303 119.088 27.0303C117.934 27.0303 117.06 27.4172 116.466 28.1911C115.879 28.965 115.579 30.0092 115.566 31.3235C115.572 32.1975 115.709 32.958 115.976 33.6052C116.243 34.2457 116.64 34.7427 117.167 35.0963C117.694 35.4432 118.334 35.6167 119.088 35.6167C119.816 35.6167 120.436 35.4499 120.95 35.1163C121.47 34.7828 121.867 34.289 122.141 33.6352L123.622 34.0756C123.221 35.0363 122.634 35.7702 121.86 36.2772C121.086 36.7776 120.162 37.0278 119.088 37.0278ZM127.765 36.7275V27.2804H123.932V25.9194H133.069V27.2804H129.236V36.7275H127.765ZM139.23 37.0278C138.263 37.0278 137.432 36.7809 136.739 36.2872C136.045 35.7868 135.518 35.1063 135.157 34.2457C134.797 33.3784 134.617 32.401 134.617 31.3135C134.617 30.206 134.797 29.2252 135.157 28.3713C135.518 27.5106 136.048 26.8368 136.749 26.3497C137.456 25.8627 138.303 25.6192 139.291 25.6192C140.251 25.6192 141.089 25.8661 141.802 26.3598C142.523 26.8535 143.073 27.534 143.454 28.4013C143.834 29.2619 144.024 30.2327 144.024 31.3135C144.024 32.401 143.834 33.3784 143.454 34.2457C143.073 35.113 142.52 35.7935 141.792 36.2872C141.072 36.7809 140.218 37.0278 139.23 37.0278ZM134.367 41.5312V25.9194H135.688V34.0555H135.848V41.5312H134.367ZM139.08 35.6567C139.814 35.6567 140.435 35.4699 140.942 35.0963C141.449 34.7227 141.829 34.209 142.083 33.5552C142.336 32.8947 142.463 32.1474 142.463 31.3135C142.463 30.4795 142.336 29.7356 142.083 29.0818C141.836 28.428 141.456 27.9176 140.942 27.5507C140.428 27.177 139.798 26.9902 139.05 26.9902C138.316 26.9902 137.696 27.1737 137.189 27.5406C136.689 27.9009 136.312 28.4046 136.058 29.0518C135.811 29.6989 135.688 30.4528 135.688 31.3135C135.688 32.1675 135.815 32.9214 136.068 33.5752C136.322 34.229 136.702 34.7394 137.209 35.1063C137.716 35.4733 138.34 35.6567 139.08 35.6567ZM152.12 37.0278C151.333 37.0278 150.659 36.8843 150.098 36.5974C149.545 36.3106 149.128 35.9236 148.848 35.4366C148.567 34.9495 148.427 34.4125 148.427 33.8254C148.427 32.9781 148.671 32.2976 149.158 31.7838C149.645 31.2701 150.319 30.9032 151.179 30.683C151.74 30.5429 152.347 30.4261 153.001 30.3327C153.655 30.2327 154.545 30.1092 155.673 29.9625C155.853 29.9358 156.023 29.9158 156.183 29.9024C156.343 29.8824 156.49 29.8591 156.623 29.8324L156.103 30.1526C156.116 29.4254 156.03 28.8316 155.843 28.3713C155.656 27.9109 155.349 27.5707 154.922 27.3505C154.495 27.1237 153.928 27.0102 153.221 27.0102C152.46 27.0102 151.826 27.1804 151.319 27.5206C150.819 27.8609 150.469 28.3846 150.269 29.0918L148.838 28.6715C149.091 27.6974 149.591 26.9469 150.339 26.4198C151.093 25.8861 152.06 25.6192 153.241 25.6192C154.235 25.6192 155.076 25.806 155.763 26.1796C156.457 26.5532 156.944 27.087 157.224 27.7808C157.351 28.0744 157.434 28.408 157.474 28.7816C157.521 29.1552 157.544 29.5655 157.544 30.0125V36.7275H156.233V34.0155L156.613 34.1756C156.367 34.7894 156.03 35.3098 155.603 35.7368C155.176 36.1638 154.669 36.4874 154.081 36.7075C153.494 36.921 152.841 37.0278 152.12 37.0278ZM152.29 35.7568C152.957 35.7568 153.548 35.6367 154.061 35.3965C154.582 35.1497 154.999 34.8128 155.312 34.3858C155.633 33.9588 155.843 33.4684 155.943 32.9147C156.003 32.6478 156.04 32.3676 156.053 32.0741C156.073 31.7738 156.083 31.4202 156.083 31.0133V30.8331L156.643 31.1233L155.973 31.2134C155.006 31.3202 154.192 31.4202 153.531 31.5136C152.871 31.607 152.283 31.7238 151.77 31.8639C151.223 32.0173 150.772 32.2509 150.419 32.5644C150.072 32.8713 149.898 33.2916 149.898 33.8254C149.898 34.159 149.978 34.4725 150.139 34.7661C150.305 35.0596 150.569 35.2998 150.929 35.4866C151.289 35.6668 151.743 35.7568 152.29 35.7568ZM159.539 36.7275L159.549 25.9194H161.03V31.1233L165.854 25.9194H167.815L162.751 31.3235L168.476 36.7275H166.334L161.03 31.5236V36.7275H159.539ZM173.731 37.0278C172.764 37.0278 171.933 36.7809 171.24 36.2872C170.546 35.7868 170.019 35.1063 169.658 34.2457C169.298 33.3784 169.118 32.401 169.118 31.3135C169.118 30.206 169.298 29.2252 169.658 28.3713C170.019 27.5106 170.549 26.8368 171.25 26.3497C171.957 25.8627 172.804 25.6192 173.791 25.6192C174.752 25.6192 175.589 25.8661 176.303 26.3598C177.024 26.8535 177.574 27.534 177.955 28.4013C178.335 29.2619 178.525 30.2327 178.525 31.3135C178.525 32.401 178.335 33.3784 177.955 34.2457C177.574 35.113 177.021 35.7935 176.293 36.2872C175.573 36.7809 174.719 37.0278 173.731 37.0278ZM168.868 41.5312V25.9194H170.189V34.0555H170.349V41.5312H168.868ZM173.581 35.6567C174.315 35.6567 174.936 35.4699 175.443 35.0963C175.95 34.7227 176.33 34.209 176.584 33.5552C176.837 32.8947 176.964 32.1474 176.964 31.3135C176.964 30.4795 176.837 29.7356 176.584 29.0818C176.337 28.428 175.956 27.9176 175.443 27.5507C174.929 27.177 174.299 26.9902 173.551 26.9902C172.817 26.9902 172.197 27.1737 171.69 27.5406C171.19 27.9009 170.813 28.4046 170.559 29.0518C170.312 29.6989 170.189 30.4528 170.189 31.3135C170.189 32.1675 170.316 32.9214 170.569 33.5752C170.823 34.229 171.203 34.7394 171.71 35.1063C172.217 35.4733 172.841 35.6567 173.581 35.6567ZM184.696 37.0278C183.655 37.0278 182.744 36.7976 181.964 36.3373C181.183 35.8702 180.579 35.2097 180.152 34.3558C179.732 33.5018 179.522 32.5077 179.522 31.3735C179.522 30.1993 179.732 29.1819 180.152 28.3212C180.573 27.4539 181.166 26.7867 181.934 26.3197C182.701 25.8527 183.601 25.6192 184.636 25.6192C185.696 25.6192 186.604 25.8627 187.358 26.3497C188.118 26.8368 188.692 27.5406 189.079 28.4613C189.466 29.382 189.643 30.4728 189.609 31.7338H188.108V31.2134C188.088 30.2794 187.948 29.4988 187.688 28.8716C187.428 28.2445 187.044 27.7708 186.537 27.4506C186.03 27.1303 185.409 26.9702 184.676 26.9702C183.908 26.9702 183.255 27.1403 182.714 27.4806C182.18 27.8142 181.773 28.3079 181.493 28.9617C181.22 29.6089 181.083 30.3961 181.083 31.3235C181.083 32.2308 181.22 33.0048 181.493 33.6452C181.773 34.2857 182.18 34.7761 182.714 35.1163C183.248 35.4499 183.888 35.6167 184.636 35.6167C185.403 35.6167 186.077 35.4399 186.657 35.0863C187.238 34.7327 187.695 34.2157 188.028 33.5351L189.399 34.0655C189.119 34.6927 188.742 35.2298 188.268 35.6768C187.801 36.1171 187.261 36.454 186.647 36.6875C186.04 36.9144 185.389 37.0278 184.696 37.0278ZM180.562 31.7338V30.5029H188.819V31.7338H180.562ZM190.429 35.4666C190.836 35.4666 191.16 35.3832 191.4 35.2164C191.647 35.0429 191.847 34.7794 192 34.4258C192.154 34.0655 192.287 33.5785 192.401 32.9647C192.561 32.1574 192.684 31.2401 192.771 30.2127C192.858 29.1852 192.941 27.7541 193.021 25.9194H200.166V35.4666H201.207V39.1294H199.786V36.7275H191.84V39.1294H190.429V35.4666ZM192.921 35.4666H198.705V27.1804H194.382C194.315 28.5214 194.235 29.7223 194.142 30.7831C194.049 31.8372 193.925 32.7079 193.772 33.395C193.645 33.9555 193.525 34.3891 193.411 34.696C193.298 35.0029 193.134 35.2598 192.921 35.4666ZM211.197 25.9194V36.7275H209.766V28.3112L203.842 36.7275H202.601V25.9194H204.032V34.2657L209.966 25.9194H211.197ZM216.338 36.7275V27.2804H212.505V25.9194H221.642V27.2804H217.809V36.7275H216.338ZM227.268 37.0278C226.213 37.0278 225.299 36.7876 224.526 36.3072C223.758 35.8269 223.171 35.1564 222.764 34.2957C222.357 33.4284 222.154 32.4343 222.154 31.3135C222.154 30.186 222.361 29.1919 222.774 28.3312C223.188 27.4706 223.782 26.8034 224.556 26.3297C225.329 25.856 226.233 25.6192 227.268 25.6192C228.328 25.6192 229.242 25.8594 230.01 26.3397C230.784 26.8201 231.374 27.4906 231.781 28.3513C232.188 29.2052 232.391 30.1926 232.391 31.3135C232.391 32.4477 232.185 33.4451 231.771 34.3057C231.364 35.1664 230.774 35.8369 230 36.3172C229.232 36.7909 228.322 37.0278 227.268 37.0278ZM227.268 35.6167C228.048 35.6167 228.705 35.4399 229.239 35.0863C229.773 34.726 230.17 34.2223 230.43 33.5752C230.697 32.928 230.83 32.1741 230.83 31.3135C230.83 29.9791 230.527 28.9317 229.92 28.1711C229.312 27.4105 228.428 27.0303 227.268 27.0303C226.48 27.0303 225.82 27.2104 225.286 27.5707C224.759 27.9243 224.365 28.4213 224.105 29.0618C223.845 29.7023 223.715 30.4528 223.715 31.3135C223.715 32.1875 223.848 32.948 224.115 33.5952C224.389 34.2423 224.789 34.7427 225.316 35.0963C225.85 35.4432 226.5 35.6167 227.268 35.6167ZM233.989 36.7275V25.9194H238.442C239.116 25.9194 239.693 25.9828 240.173 26.1096C240.787 26.283 241.277 26.6166 241.644 27.1103C242.011 27.5974 242.195 28.1845 242.195 28.8716C242.195 29.2519 242.135 29.5955 242.015 29.9024C241.901 30.2026 241.738 30.4662 241.524 30.693C241.331 30.9065 241.104 31.0733 240.844 31.1934C241.057 31.2334 241.287 31.3268 241.534 31.4736C241.921 31.7071 242.215 32.0173 242.415 32.4043C242.615 32.7846 242.715 33.2449 242.715 33.7853C242.715 34.5125 242.542 35.113 242.195 35.5867C241.848 36.0604 241.371 36.384 240.764 36.5574C240.523 36.6241 240.26 36.6708 239.973 36.6975C239.686 36.7175 239.369 36.7275 239.022 36.7275H233.989ZM238.952 35.4766C239.106 35.4766 239.286 35.4666 239.493 35.4466C239.706 35.4199 239.893 35.3865 240.053 35.3465C240.433 35.2531 240.717 35.0596 240.904 34.7661C241.097 34.4725 241.194 34.1323 241.194 33.7453C241.194 33.2783 241.054 32.8947 240.774 32.5944C240.5 32.2875 240.133 32.0974 239.673 32.024C239.473 31.9773 239.162 31.954 238.742 31.954H235.47V35.4766H238.952ZM238.492 30.693C238.692 30.693 238.896 30.683 239.102 30.663C239.309 30.6363 239.489 30.5929 239.643 30.5329C239.976 30.4195 240.227 30.2193 240.393 29.9324C240.567 29.6456 240.654 29.3186 240.654 28.9517C240.654 28.5714 240.56 28.2378 240.373 27.951C240.193 27.6641 239.933 27.4639 239.593 27.3505C239.273 27.2371 238.839 27.1804 238.292 27.1804H235.47V30.693H238.492ZM247.221 37.0278C246.434 37.0278 245.76 36.8843 245.2 36.5974C244.646 36.3106 244.229 35.9236 243.949 35.4366C243.668 34.9495 243.528 34.4125 243.528 33.8254C243.528 32.9781 243.772 32.2976 244.259 31.7838C244.746 31.2701 245.42 30.9032 246.28 30.683C246.841 30.5429 247.448 30.4261 248.102 30.3327C248.756 30.2327 249.646 30.1092 250.774 29.9625C250.954 29.9358 251.124 29.9158 251.284 29.9024C251.444 29.8824 251.591 29.8591 251.725 29.8324L251.204 30.1526C251.218 29.4254 251.131 28.8316 250.944 28.3713C250.757 27.9109 250.45 27.5707 250.023 27.3505C249.596 27.1237 249.029 27.0102 248.322 27.0102C247.561 27.0102 246.928 27.1804 246.421 27.5206C245.92 27.8609 245.57 28.3846 245.37 29.0918L243.939 28.6715C244.192 27.6974 244.693 26.9469 245.44 26.4198C246.194 25.8861 247.161 25.6192 248.342 25.6192C249.336 25.6192 250.177 25.806 250.864 26.1796C251.558 26.5532 252.045 27.087 252.325 27.7808C252.452 28.0744 252.535 28.408 252.575 28.7816C252.622 29.1552 252.645 29.5655 252.645 30.0125V36.7275H251.334V34.0155L251.715 34.1756C251.468 34.7894 251.131 35.3098 250.704 35.7368C250.277 36.1638 249.77 36.4874 249.183 36.7075C248.596 36.921 247.942 37.0278 247.221 37.0278ZM247.391 35.7568C248.058 35.7568 248.649 35.6367 249.163 35.3965C249.683 35.1497 250.1 34.8128 250.414 34.3858C250.734 33.9588 250.944 33.4684 251.044 32.9147C251.104 32.6478 251.141 32.3676 251.154 32.0741C251.174 31.7738 251.184 31.4202 251.184 31.0133V30.8331L251.745 31.1233L251.074 31.2134C250.107 31.3202 249.293 31.4202 248.632 31.5136C247.972 31.607 247.385 31.7238 246.871 31.8639C246.324 32.0173 245.873 32.2509 245.52 32.5644C245.173 32.8713 244.999 33.2916 244.999 33.8254C244.999 34.159 245.08 34.4725 245.24 34.7661C245.406 35.0596 245.67 35.2998 246.03 35.4866C246.391 35.6668 246.844 35.7568 247.391 35.7568ZM254.64 36.7275V25.9194H256.111V30.613H262.206V25.9194H263.677V36.7275H262.206V32.024H256.111V36.7275H254.64ZM265.865 36.7275V25.9194H267.336V30.613H273.431V25.9194H274.902V36.7275H273.431V32.024H267.336V36.7275H265.865ZM277.11 36.7275L277.09 25.9194H278.571V29.9925H280.452C281.213 29.9925 281.79 30.0258 282.184 30.0926C284.025 30.4528 284.946 31.5403 284.946 33.355C284.946 33.9555 284.839 34.4792 284.625 34.9262C284.412 35.3732 284.115 35.7335 283.735 36.007C283.354 36.2805 282.914 36.474 282.414 36.5874C282.167 36.6408 281.89 36.6775 281.583 36.6975C281.283 36.7175 280.949 36.7275 280.582 36.7275H277.11ZM280.522 35.4666C280.836 35.4666 281.113 35.4599 281.353 35.4466C281.6 35.4266 281.82 35.3899 282.013 35.3365C282.42 35.2231 282.757 35.0063 283.024 34.686C283.291 34.3658 283.424 33.9221 283.424 33.355C283.424 32.7746 283.288 32.3242 283.014 32.004C282.747 31.6838 282.37 31.4703 281.883 31.3635C281.536 31.2901 281.083 31.2534 280.522 31.2534H278.571V35.4666H280.522ZM286.237 36.7275V25.9194H287.708V36.7275H286.237ZM288.707 36.7275L292.93 31.2634L288.797 25.9194H290.558L293.791 30.1326L296.993 25.9194H298.754L294.621 31.2634L298.855 36.7275H297.083L293.791 32.3943L290.478 36.7275H288.707ZM303.469 36.7275V22.3167H304.94V36.7275H303.469ZM311.172 36.7275V23.7278H306.139V22.3167H317.677V23.7278H312.644V36.7275H311.172ZM316.488 31.0533V29.7923H322.492V31.0533H316.488ZM324.482 36.7275L324.492 25.9194H325.973V31.1233L330.797 25.9194H332.759L327.695 31.3235L333.419 36.7275H331.277L325.973 31.5236V36.7275H324.482ZM338.139 37.0278C337.085 37.0278 336.171 36.7876 335.397 36.3072C334.63 35.8269 334.043 35.1564 333.636 34.2957C333.229 33.4284 333.025 32.4343 333.025 31.3135C333.025 30.186 333.232 29.1919 333.646 28.3312C334.059 27.4706 334.653 26.8034 335.427 26.3297C336.201 25.856 337.105 25.6192 338.139 25.6192C339.2 25.6192 340.114 25.8594 340.881 26.3397C341.655 26.8201 342.246 27.4906 342.653 28.3513C343.06 29.2052 343.263 30.1926 343.263 31.3135C343.263 32.4477 343.056 33.4451 342.643 34.3057C342.236 35.1664 341.645 35.8369 340.871 36.3172C340.104 36.7909 339.193 37.0278 338.139 37.0278ZM338.139 35.6167C338.92 35.6167 339.577 35.4399 340.111 35.0863C340.644 34.726 341.041 34.2223 341.302 33.5752C341.568 32.928 341.702 32.1741 341.702 31.3135C341.702 29.9791 341.398 28.9317 340.791 28.1711C340.184 27.4105 339.3 27.0303 338.139 27.0303C337.352 27.0303 336.691 27.2104 336.158 27.5707C335.631 27.9243 335.237 28.4213 334.977 29.0618C334.717 29.7023 334.586 30.4528 334.586 31.3135C334.586 32.1875 334.72 32.948 334.987 33.5952C335.26 34.2423 335.661 34.7427 336.188 35.0963C336.721 35.4432 337.372 35.6167 338.139 35.6167ZM344.86 36.7275V25.9194H346.171L350.384 34.7661L354.607 25.9194H355.908V36.7275H354.487V29.0618L350.855 36.7275H349.924L346.291 29.0618V36.7275H344.86ZM358.098 36.7275V25.9194H366.695V36.7275H365.224V27.3305H359.569V36.7275H358.098ZM371.995 37.0278C371.208 37.0278 370.534 36.8843 369.974 36.5974C369.42 36.3106 369.003 35.9236 368.723 35.4366C368.443 34.9495 368.303 34.4125 368.303 33.8254C368.303 32.9781 368.546 32.2976 369.033 31.7838C369.52 31.2701 370.194 30.9032 371.055 30.683C371.615 30.5429 372.222 30.4261 372.876 30.3327C373.53 30.2327 374.421 30.1092 375.548 29.9625C375.728 29.9358 375.898 29.9158 376.058 29.9024C376.219 29.8824 376.365 29.8591 376.499 29.8324L375.978 30.1526C375.992 29.4254 375.905 28.8316 375.718 28.3713C375.531 27.9109 375.224 27.5707 374.798 27.3505C374.371 27.1237 373.803 27.0102 373.096 27.0102C372.336 27.0102 371.702 27.1804 371.195 27.5206C370.694 27.8609 370.344 28.3846 370.144 29.0918L368.713 28.6715C368.966 27.6974 369.467 26.9469 370.214 26.4198C370.968 25.8861 371.935 25.6192 373.116 25.6192C374.11 25.6192 374.951 25.806 375.638 26.1796C376.332 26.5532 376.819 27.087 377.099 27.7808C377.226 28.0744 377.309 28.408 377.349 28.7816C377.396 29.1552 377.419 29.5655 377.419 30.0125V36.7275H376.108V34.0155L376.489 34.1756C376.242 34.7894 375.905 35.3098 375.478 35.7368C375.051 36.1638 374.544 36.4874 373.957 36.7075C373.37 36.921 372.716 37.0278 371.995 37.0278ZM372.166 35.7568C372.833 35.7568 373.423 35.6367 373.937 35.3965C374.457 35.1497 374.874 34.8128 375.188 34.3858C375.508 33.9588 375.718 33.4684 375.818 32.9147C375.878 32.6478 375.915 32.3676 375.928 32.0741C375.948 31.7738 375.958 31.4202 375.958 31.0133V30.8331L376.519 31.1233L375.848 31.2134C374.881 31.3202 374.067 31.4202 373.406 31.5136C372.746 31.607 372.159 31.7238 371.645 31.8639C371.098 32.0173 370.648 32.2509 370.294 32.5644C369.947 32.8713 369.774 33.2916 369.774 33.8254C369.774 34.159 369.854 34.4725 370.014 34.7661C370.181 35.0596 370.444 35.2998 370.805 35.4866C371.165 35.6668 371.618 35.7568 372.166 35.7568ZM379.414 36.7275V25.9194H380.885V30.613H386.98V25.9194H388.451V36.7275H386.98V32.024H380.885V36.7275H379.414ZM399.236 25.9194V36.7275H397.804V28.3112L391.88 36.7275H390.639V25.9194H392.07V34.2657L398.005 25.9194H399.236ZM405.927 24.6385C405.46 24.6385 405.027 24.525 404.626 24.2982C404.233 24.0647 403.919 23.7511 403.686 23.3575C403.459 22.9572 403.345 22.5235 403.345 22.0565H404.566C404.566 22.3034 404.626 22.5302 404.746 22.737C404.873 22.9439 405.04 23.1106 405.247 23.2374C405.454 23.3575 405.68 23.4175 405.927 23.4175C406.174 23.4175 406.401 23.3575 406.608 23.2374C406.821 23.1106 406.988 22.9439 407.108 22.737C407.228 22.5302 407.288 22.3034 407.288 22.0565H408.509C408.509 22.5235 408.392 22.9572 408.159 23.3575C407.932 23.7511 407.619 24.0647 407.218 24.2982C406.825 24.525 406.394 24.6385 405.927 24.6385ZM410.03 25.9194V36.7275H408.599V28.3112L402.675 36.7275H401.434V25.9194H402.865V34.2657L408.799 25.9194H410.03Z" fill="url(#paint0_linear_0_229)"/>
<defs>
<linearGradient id="paint0_linear_0_229" x1="248.787" y1="39.7298" x2="248.787" y2="-4.30328" gradientUnits="userSpaceOnUse">
<stop stop-color="#1439BF"/>
<stop offset="1" stop-color="#030B39"/>
</linearGradient>
</defs>
</svg>
