<svg width="1920" height="900" viewBox="0 0 1920 900" fill="none" xmlns="http://www.w3.org/2000/svg">
<g clip-path="url(#clip0_102371_1556)">
<rect width="1920" height="900" fill="url(#paint0_linear_102371_1556)"/>
<g filter="url(#filter0_ddf_102371_1556)">
<path d="M1628.79 699.147C1670.39 699.147 1704.11 665.422 1704.11 623.822C1704.11 586.896 1677.54 556.202 1642.48 549.765V519.807H1611.67V550.484C1578.32 558.239 1553.46 588.129 1553.46 623.822C1553.46 665.422 1587.19 699.147 1628.79 699.147ZM1628.79 598.589C1642.96 598.589 1654.47 610.093 1654.47 624.268C1654.47 638.442 1642.96 649.946 1628.79 649.946C1614.61 649.946 1603.11 638.442 1603.11 624.268C1603.11 610.093 1614.61 598.589 1628.79 598.589ZM1698.94 779.966C1676.34 790.1 1651.74 795.288 1626.82 794.997C1602.08 794.706 1577.81 789.056 1555.59 778.545C1555.19 778.357 1554.78 778.168 1554.39 777.98C1553.14 777.381 1551.89 776.748 1550.64 776.114C1550.59 776.08 1550.54 776.063 1550.48 776.029C1546.1 773.769 1541.79 771.355 1537.59 768.702C1510.85 751.874 1489.28 727.975 1475.3 699.643L1498.29 688.293C1508.18 708.34 1522.56 725.75 1540.2 739.291L1565.53 692.795C1575.41 701.612 1587.19 708.34 1600.16 712.294L1572.17 757.917C1589.5 765.226 1608.16 769.164 1627.11 769.386C1647.19 769.626 1667.03 765.689 1685.4 757.934L1656.83 711.37C1669.68 707.004 1681.27 699.883 1690.9 690.69L1717.38 739.308C1734.12 726.469 1747.92 710.12 1757.76 691.306L1780.48 703.187C1765.84 731.176 1743.72 754.578 1716.61 770.79C1712.4 773.307 1708.07 775.618 1703.67 777.758C1703.29 777.946 1702.91 778.134 1702.54 778.305C1701.58 778.768 1700.62 779.213 1699.66 779.641C1699.42 779.743 1699.18 779.863 1698.94 779.966ZM1519.57 777.141C1528.97 783.869 1539.03 789.724 1549.61 794.654L1502.11 872.05H1467.87L1519.57 777.141ZM1789.71 872.016L1755.47 872.05L1707.96 794.654C1718.54 789.724 1728.59 783.869 1738.01 777.141L1789.71 872.016Z" fill="url(#paint1_linear_102371_1556)"/>
<path d="M1255.48 174C1276.1 174 1285.08 192.352 1292.85 211.217L1378.05 418.598C1349.55 438.747 1330.92 471.958 1330.92 509.535V882.732C1330.92 895.28 1332.99 907.349 1336.83 918.596H1246.33L1283.55 793.147L1319.74 803.761L1288.62 725.972L1219.95 774.47L1256.32 785.084L1216.74 918.613H1138.95L1219.78 645.666L1256.14 656.451L1225.02 578.491L1156.36 627.16L1192.55 637.774L1109.33 918.648H1030.17L1155.67 495.326L1191.86 505.94L1160.74 428.151L1092.07 476.649L1128.44 487.417L1000.57 918.648H792.9C772.272 918.648 747.569 900.296 755.529 881.431L1033.06 211.217C1041.03 192.352 1049.98 174 1070.45 174H1255.48ZM1810.26 964.904H1447.33C1399.19 964.904 1360.02 925.735 1360.02 877.596V514.671C1360.02 466.532 1399.19 427.363 1447.33 427.363H1810.26C1858.39 427.363 1897.56 466.532 1897.56 514.671V877.596C1897.56 925.735 1858.39 964.904 1810.26 964.904ZM1447.33 478.72C1427.51 478.72 1411.38 494.847 1411.38 514.671V877.596C1411.38 897.42 1427.51 913.546 1447.33 913.546H1810.26C1830.08 913.546 1846.21 897.42 1846.21 877.596V514.671C1846.21 494.847 1830.08 478.72 1810.26 478.72H1447.33Z" fill="url(#paint2_linear_102371_1556)"/>
</g>
</g>
<defs>
<filter id="filter0_ddf_102371_1556" x="744" y="164" width="1163.56" height="810.904" filterUnits="userSpaceOnUse" color-interpolation-filters="sRGB">
<feFlood flood-opacity="0" result="BackgroundImageFix"/>
<feColorMatrix in="SourceAlpha" type="matrix" values="0 0 0 0 0 0 0 0 0 0 0 0 0 0 0 0 0 0 127 0" result="hardAlpha"/>
<feOffset/>
<feGaussianBlur stdDeviation="2"/>
<feComposite in2="hardAlpha" operator="out"/>
<feColorMatrix type="matrix" values="0 0 0 0 1 0 0 0 0 0.490665 0 0 0 0 0.153846 0 0 0 1 0"/>
<feBlend mode="normal" in2="BackgroundImageFix" result="effect1_dropShadow_102371_1556"/>
<feColorMatrix in="SourceAlpha" type="matrix" values="0 0 0 0 0 0 0 0 0 0 0 0 0 0 0 0 0 0 127 0" result="hardAlpha"/>
<feOffset/>
<feGaussianBlur stdDeviation="5"/>
<feComposite in2="hardAlpha" operator="out"/>
<feColorMatrix type="matrix" values="0 0 0 0 1 0 0 0 0 1 0 0 0 0 1 0 0 0 0.25 0"/>
<feBlend mode="normal" in2="effect1_dropShadow_102371_1556" result="effect2_dropShadow_102371_1556"/>
<feBlend mode="normal" in="SourceGraphic" in2="effect2_dropShadow_102371_1556" result="shape"/>
<feGaussianBlur stdDeviation="2" result="effect3_foregroundBlur_102371_1556"/>
</filter>
<linearGradient id="paint0_linear_102371_1556" x1="960" y1="900" x2="960" y2="0" gradientUnits="userSpaceOnUse">
<stop stop-color="#1439BF"/>
<stop offset="1" stop-color="#030B39"/>
</linearGradient>
<linearGradient id="paint1_linear_102371_1556" x1="1628.79" y1="843.694" x2="1628.79" y2="519.807" gradientUnits="userSpaceOnUse">
<stop stop-color="#FFAC27"/>
<stop offset="1" stop-color="#FF7D27"/>
</linearGradient>
<linearGradient id="paint2_linear_102371_1556" x1="1325.78" y1="901.236" x2="1325.78" y2="174" gradientUnits="userSpaceOnUse">
<stop stop-color="#FFAC27"/>
<stop offset="1" stop-color="#FF7D27"/>
</linearGradient>
<clipPath id="clip0_102371_1556">
<rect width="1920" height="900" fill="white"/>
</clipPath>
</defs>
</svg>
