<svg width="32" height="32" viewBox="0 0 32 32" fill="none" xmlns="http://www.w3.org/2000/svg">
<g clip-path="url(#clip0_0_141)">
<path d="M29.54 27.755C29.14 27.785 28.77 27.935 28.46 28.18L26.38 25.98C28.49 23.815 29.84 21.09 30.275 18.085L30.285 18.03C31.26 17.86 32 17.02 32 16C32 14.98 31.26 14.14 30.28 13.97L30.27 13.92C29.8512 10.94 28.4877 8.17286 26.38 6.025L28.455 3.82C28.765 4.06 29.135 4.21 29.535 4.245C29.595 4.25 29.65 4.255 29.705 4.255C30.19 4.255 30.65 4.085 31.025 3.765C31.44 3.41 31.695 2.92 31.74 2.375C31.78 1.83 31.61 1.3 31.255 0.885C31.082 0.680374 30.87 0.512217 30.6313 0.390323C30.3927 0.268428 30.1322 0.195233 29.865 0.175C29.325 0.13 28.795 0.3 28.38 0.655C27.905 1.06 27.66 1.635 27.66 2.215C27.66 2.56 27.755 2.905 27.93 3.22L27.905 3.25L25.815 5.47C24.6063 4.34748 23.2101 3.4455 21.69 2.805L21.66 2.78H21.63C20.5 2.305 19.31 1.98 18.085 1.81L18.04 1.805C17.915 0.795 17.05 0 16 0C14.94 0 14.065 0.81 13.955 1.845C13.94 1.85 13.925 1.85 13.915 1.85C11.65 2.195 9.485 3.09 7.645 4.44C7.145 4.81 6.705 5.185 6.295 5.575L4.06 3.215C4.54 2.38 4.38 1.3 3.62 0.655C3.41604 0.479927 3.17921 0.347298 2.92336 0.264878C2.66752 0.182458 2.3978 0.151903 2.13 0.175C1.8627 0.196517 1.60227 0.27051 1.36359 0.392748C1.12491 0.514986 0.912667 0.683072 0.738993 0.887394C0.565319 1.09172 0.433622 1.32827 0.351433 1.58352C0.269244 1.83878 0.238174 2.10773 0.26 2.375C0.280778 2.64208 0.354211 2.9024 0.476068 3.14097C0.597925 3.37953 0.765794 3.59162 0.97 3.765C1.345 4.085 1.81 4.255 2.29 4.255C2.35 4.255 2.405 4.25 2.46 4.245C2.865 4.215 3.23 4.065 3.54 3.82L5.73 6.135C4.335 7.595 3.245 9.37 2.59 11.27L2.57 11.32C2.275 12.155 2.065 13.03 1.94 13.9C1.935 13.915 1.935 13.93 1.93 13.945C0.855 14.02 0 14.91 0 16C0 17.09 0.855 17.985 1.93 18.055C1.93 18.065 1.935 18.08 1.935 18.09C2.365 21.03 3.68 23.715 5.73 25.86L3.54 28.175C3.17123 27.8858 2.7137 27.7333 2.24517 27.7433C1.77665 27.7533 1.32606 27.9253 0.97 28.23C0.555 28.585 0.305 29.075 0.26 29.62C0.215 30.165 0.385 30.695 0.74 31.11C1.095 31.525 1.59 31.775 2.13 31.82C2.19 31.825 2.245 31.83 2.3 31.83C2.785 31.83 3.245 31.66 3.62 31.34C3.98195 31.0317 4.22459 30.6064 4.30587 30.1379C4.38714 29.6694 4.30193 29.1872 4.065 28.775L6.29 26.41C8.415 28.41 11.045 29.7 13.905 30.14C13.92 30.145 13.94 30.145 13.955 30.15C14.07 31.19 14.94 32 16 32C17.05 32 17.915 31.205 18.04 30.19L18.085 30.185C20.995 29.78 23.66 28.515 25.815 26.535L27.94 28.785C27.46 29.62 27.625 30.7 28.385 31.345C28.755 31.665 29.22 31.835 29.705 31.835C29.76 31.835 29.815 31.83 29.87 31.825C30.1372 31.8048 30.3977 31.7316 30.6363 31.6097C30.875 31.4878 31.087 31.3196 31.26 31.115C31.615 30.7 31.785 30.17 31.745 29.625C31.7 29.08 31.445 28.59 31.03 28.235C30.615 27.88 30.085 27.71 29.54 27.755ZM17.995 29.395C17.755 28.515 16.955 27.86 16 27.86C15.06 27.86 14.265 28.495 14.02 29.36C14.015 29.36 14.005 29.36 14 29.355C11.19 28.925 8.625 27.63 6.555 25.58L6.55 25.575C4.475 23.5 3.155 20.875 2.73 17.975C2.73 17.97 2.73 17.96 2.725 17.955C3.55 17.68 4.145 16.91 4.145 16C4.145 15.09 3.55 14.315 2.725 14.045C2.725 14.035 2.725 14.025 2.73 14.015C2.83 13.32 2.99 12.63 3.2 11.96L3.78 12.415C3.835 12.46 3.875 12.53 3.885 12.6L4 13.735C4.02 13.945 4.13 14.135 4.295 14.265L6.485 15.91C6.575 15.98 6.615 16.09 6.585 16.2L6.455 16.67C6.43 16.765 6.42 16.86 6.43 16.955L6.59 18.445C6.62 18.685 6.76 18.9 6.975 19.02L9.38 20.385C9.455 20.43 9.505 20.505 9.515 20.59L9.765 22.905C9.775 23.025 9.82 23.145 9.885 23.245L10.395 24.015C10.42 24.05 10.435 24.095 10.44 24.135L10.58 25.4C10.62 25.79 10.95 26.08 11.335 26.08C11.36 26.08 11.39 26.08 11.415 26.075L12.365 25.975C12.57 25.95 12.75 25.855 12.88 25.695C13.005 25.535 13.065 25.335 13.04 25.135L12.87 23.535C12.8671 23.4959 12.8722 23.4567 12.8851 23.4197C12.898 23.3827 12.9184 23.3488 12.945 23.32L13.58 22.65C13.735 22.485 13.81 22.265 13.785 22.04L13.72 21.445C13.71 21.365 13.735 21.29 13.79 21.23L15.815 19.02C15.965 18.86 16.035 18.64 16.01 18.425L15.86 17.035C15.84 16.835 15.74 16.655 15.58 16.525C15.42 16.4 15.225 16.34 15.02 16.36L13.505 16.525C13.43 16.535 13.36 16.515 13.305 16.47C13.25 16.425 13.215 16.36 13.205 16.285C13.185 16.085 13.085 15.9 12.925 15.775C12.8477 15.711 12.7582 15.6633 12.662 15.6349C12.5657 15.6066 12.4647 15.5981 12.365 15.61L11.33 15.725C11.2598 15.7299 11.1903 15.7085 11.135 15.665C11.1063 15.644 11.0825 15.617 11.0653 15.586C11.048 15.5549 11.0377 15.5204 11.035 15.485L10.98 14.99C10.9694 14.8904 10.9393 14.7939 10.8913 14.706C10.8433 14.6181 10.7784 14.5406 10.7003 14.4779C10.6223 14.4152 10.5326 14.3685 10.4364 14.3405C10.3403 14.3126 10.2395 14.3039 10.14 14.315L8.56 14.485C8.49433 14.4911 8.42866 14.4734 8.375 14.435L7.055 13.49C7.02312 13.4691 6.99657 13.441 6.97748 13.408C6.95838 13.3751 6.94726 13.3381 6.945 13.3L6.83 12.26C6.82443 12.1894 6.84625 12.1194 6.89094 12.0644C6.93563 12.0095 6.99975 11.9739 7.07 11.965L8.75 11.785C8.96 11.765 9.165 11.67 9.315 11.52L11.37 9.555C11.59 9.35 11.7 9.05 11.665 8.75L11.645 8.56C11.585 8.03 11.105 7.64 10.58 7.7C10.31 7.725 10.08 7.535 10.05 7.275L9.965 6.45C9.935 6.19 9.805 5.95 9.6 5.79L8.425 4.865C10.085 3.72 12.01 2.95 14.005 2.645C14.01 2.645 14.015 2.645 14.02 2.64C14.27 3.505 15.06 4.14 16 4.14C16.95 4.14 17.755 3.485 17.995 2.605C18 2.605 18.01 2.605 18.015 2.61C19.08 2.755 20.13 3.035 21.15 3.44H21.155L20.6 4.955C20.585 4.995 20.58 5.035 20.59 5.08L20.79 6.33L20.185 7.72C20.17 7.75 20.165 7.785 20.165 7.815V9.1L19.685 9.78C19.575 9.93 19.545 10.12 19.595 10.29C19.915 11.325 20.725 11.785 22.01 11.655L23.605 12.345C23.665 12.37 23.73 12.37 23.79 12.345L24.925 11.915C25.385 11.82 25.845 11.865 26.115 12.815C25.975 13.08 25.63 13.84 25.92 14.54C25.945 14.59 25.93 14.64 25.92 14.66C25.9126 14.6821 25.9002 14.7022 25.8837 14.7187C25.8672 14.7352 25.8471 14.7476 25.825 14.755L23.575 15.65C23.53 15.67 23.49 15.7 23.465 15.74L22.575 17.05C22.54 17.1 22.525 17.16 22.53 17.22L22.695 18.545C22.7 18.575 22.71 18.605 22.725 18.63L23.635 20.36L23.715 21.89C23.715 21.91 23.72 21.93 23.725 21.95C24.155 23.37 24.9 24.5 25.94 25.3C25.835 25.42 25.72 25.53 25.6 25.655C25.585 25.665 25.565 25.67 25.55 25.685H25.54L25.505 25.735C23.445 27.73 20.855 28.995 18.005 29.39C18.005 29.395 18 29.395 17.995 29.395Z" fill="url(#paint0_linear_0_141)"/>
</g>
<defs>
<linearGradient id="paint0_linear_0_141" x1="16" y1="32" x2="16" y2="0" gradientUnits="userSpaceOnUse">
<stop stop-color="#1439BF"/>
<stop offset="1" stop-color="#030B39"/>
</linearGradient>
<clipPath id="clip0_0_141">
<rect width="32" height="32" fill="white"/>
</clipPath>
</defs>
</svg>
