<svg width="32" height="32" viewBox="0 0 32 32" fill="none" xmlns="http://www.w3.org/2000/svg">
<g clip-path="url(#clip0_0_99)">
<path d="M8.15437 3.335C8.98937 3.335 9.67938 2.72 9.79938 1.915H11.8744C12.1444 1.915 12.3644 2.135 12.3644 2.405V7.37C12.3644 7.43498 12.3902 7.49729 12.4361 7.54324C12.4821 7.58919 12.5444 7.615 12.6094 7.615C12.6744 7.615 12.7367 7.58919 12.7826 7.54324C12.8286 7.49729 12.8544 7.43498 12.8544 7.37V2.405C12.8544 1.865 12.4144 1.42 11.8694 1.42H9.79938C9.74069 1.02553 9.54237 0.665229 9.24048 0.40463C8.93859 0.144032 8.55318 0.000449347 8.15437 0C7.23437 0 6.48438 0.75 6.48438 1.665C6.48438 2.585 7.23437 3.335 8.15437 3.335ZM19.3894 7.615C19.5244 7.615 19.6344 7.505 19.6344 7.37V2.405C19.6344 2.135 19.8544 1.915 20.1244 1.915H22.1994C22.259 2.30997 22.4582 2.67047 22.761 2.93103C23.0638 3.19159 23.4499 3.33492 23.8494 3.335C24.2916 3.335 24.7158 3.15932 25.0285 2.8466C25.3412 2.53388 25.5169 2.10975 25.5169 1.6675C25.5169 1.22525 25.3412 0.801116 25.0285 0.488399C24.7158 0.175683 24.2916 0 23.8494 0C23.0144 0 22.3194 0.62 22.1994 1.42H20.1244C19.5844 1.42 19.1394 1.86 19.1394 2.405V7.37C19.1444 7.505 19.2544 7.615 19.3894 7.615ZM12.6144 24.385C12.5494 24.385 12.4871 24.4108 12.4411 24.4568C12.3952 24.5027 12.3694 24.565 12.3694 24.63V29.595C12.3694 29.865 12.1494 30.085 11.8794 30.085H9.79938C9.74089 29.6904 9.54262 29.33 9.24069 29.0694C8.93875 28.8088 8.55324 28.6652 8.15437 28.665C7.23437 28.665 6.48438 29.415 6.48438 30.335C6.48438 31.25 7.23437 32 8.15437 32C8.55318 31.9995 8.93859 31.856 9.24048 31.5954C9.54237 31.3348 9.74069 30.9745 9.79938 30.58H11.8744C12.4144 30.58 12.8594 30.14 12.8594 29.595V24.63C12.8594 24.565 12.8336 24.5027 12.7876 24.4568C12.7417 24.4108 12.6794 24.385 12.6144 24.385ZM23.8494 28.665C23.0144 28.665 22.3194 29.28 22.1994 30.085H20.1244C19.8544 30.085 19.6344 29.865 19.6344 29.595V24.63C19.6344 24.565 19.6086 24.5027 19.5626 24.4568C19.5167 24.4108 19.4544 24.385 19.3894 24.385C19.3244 24.385 19.2621 24.4108 19.2161 24.4568C19.1702 24.5027 19.1444 24.565 19.1444 24.63V29.595C19.1444 30.135 19.5844 30.58 20.1294 30.58H22.2044C22.3244 31.38 23.0194 32 23.8544 32C24.7744 32 25.5194 31.25 25.5194 30.335C25.5144 29.415 24.7694 28.665 23.8494 28.665ZM30.0894 9.8V11.875C30.0894 12.145 29.8694 12.365 29.5994 12.365H24.6344C24.5694 12.365 24.5071 12.3908 24.4611 12.4368C24.4152 12.4827 24.3894 12.545 24.3894 12.61C24.3894 12.675 24.4152 12.7373 24.4611 12.7832C24.5071 12.8292 24.5694 12.855 24.6344 12.855H29.5994C30.1394 12.855 30.5844 12.415 30.5844 11.87V9.8C30.9793 9.74041 31.3398 9.54113 31.6004 9.23837C31.861 8.93561 32.0043 8.54944 32.0044 8.15C32.0044 7.235 31.2594 6.485 30.3394 6.485C29.4194 6.485 28.6694 7.235 28.6694 8.15C28.6644 8.985 29.2844 9.68 30.0894 9.8ZM30.5794 22.2V20.125C30.5794 19.585 30.1394 19.14 29.5944 19.14H24.6294C24.5644 19.14 24.5021 19.1658 24.4561 19.2118C24.4102 19.2577 24.3844 19.32 24.3844 19.385C24.3844 19.45 24.4102 19.5123 24.4561 19.5582C24.5021 19.6042 24.5644 19.63 24.6294 19.63H29.5944C29.8644 19.63 30.0844 19.85 30.0844 20.12V22.195C29.6889 22.2544 29.3277 22.4534 29.0663 22.7561C28.8049 23.0588 28.6606 23.4451 28.6594 23.845C28.6594 24.765 29.4094 25.51 30.3294 25.51C31.2494 25.51 31.9944 24.765 31.9944 23.845C31.9953 23.4466 31.8529 23.0611 31.5931 22.7591C31.3333 22.4571 30.9735 22.2586 30.5794 22.2Z" fill="url(#paint0_linear_0_99)"/>
<path d="M30.335 14.225C29.5 14.225 28.805 14.84 28.685 15.645H26.555V14.45C26.555 14.25 26.395 14.09 26.195 14.09H24.58C24.355 13.09 23.965 12.15 23.415 11.285L24.56 10.14C24.7 10 24.7 9.775 24.56 9.635L22.365 7.44C22.2971 7.37491 22.2066 7.33857 22.1125 7.33857C22.0184 7.33857 21.9279 7.37491 21.86 7.44L20.715 8.585C19.8558 8.03574 18.9062 7.64301 17.91 7.425V5.805C17.91 5.61 17.75 5.45 17.555 5.45H16.14V3.315C16.535 3.25541 16.8955 3.05613 17.156 2.75337C17.4166 2.45061 17.5599 2.06444 17.56 1.665C17.56 0.75 16.815 0 15.895 0C14.975 0 14.225 0.75 14.225 1.665C14.225 2.5 14.845 3.195 15.65 3.315V5.45H14.45C14.255 5.45 14.095 5.61 14.095 5.805V7.425C13.095 7.645 12.15 8.035 11.285 8.585L10.14 7.44C10.075 7.375 9.985 7.36 9.89 7.335C9.795 7.335 9.705 7.375 9.635 7.44L7.445 9.635C7.375 9.705 7.34 9.795 7.34 9.89C7.34 9.985 7.375 10.075 7.44 10.14L8.585 11.285C8.035 12.15 7.645 13.09 7.425 14.09H5.805C5.61 14.09 5.45 14.25 5.45 14.45V15.645H3.315C3.25651 15.2504 3.05824 14.89 2.75631 14.6294C2.45438 14.3688 2.06887 14.2252 1.67 14.225C0.75 14.225 0 14.975 0 15.895C0 16.815 0.75 17.56 1.67 17.56C2.0691 17.5606 2.45504 17.4174 2.75715 17.1566C3.05926 16.8958 3.2573 16.5349 3.315 16.14H5.45V17.55C5.45 17.75 5.61 17.91 5.805 17.91H7.425C7.645 18.91 8.035 19.855 8.585 20.715L7.44 21.86C7.375 21.925 7.34 22.015 7.34 22.11C7.34 22.205 7.375 22.295 7.44 22.365L9.635 24.56C9.775 24.7 10 24.7 10.14 24.56L11.285 23.415C12.15 23.965 13.09 24.355 14.095 24.575V26.195C14.095 26.39 14.255 26.55 14.45 26.55H15.65V28.685C15.2545 28.7444 14.8934 28.9434 14.6319 29.2461C14.3705 29.5488 14.2262 29.9351 14.225 30.335C14.225 31.25 14.975 32 15.895 32C16.815 32 17.56 31.25 17.56 30.335C17.56 29.5 16.945 28.805 16.14 28.685V26.55H17.555C17.75 26.55 17.91 26.39 17.91 26.195V24.575C18.91 24.355 19.855 23.965 20.715 23.415L21.86 24.56C22 24.7 22.225 24.7 22.365 24.56L24.56 22.365C24.7 22.225 24.7 22 24.56 21.86L23.415 20.715C23.965 19.85 24.355 18.91 24.58 17.91H26.195C26.395 17.91 26.555 17.75 26.555 17.55V16.14H28.685C28.7446 16.535 28.9439 16.8955 29.2466 17.156C29.5494 17.4166 29.9356 17.5599 30.335 17.56C31.255 17.56 32 16.815 32 15.895C32 14.975 31.255 14.225 30.335 14.225ZM26.06 17.415H24.465C24.3 17.415 24.155 17.535 24.12 17.7C23.91 18.715 23.51 19.67 22.945 20.54C22.85 20.68 22.87 20.865 22.99 20.985L24.115 22.11L22.115 24.115L20.985 22.985C20.9265 22.9288 20.8509 22.8938 20.7703 22.8857C20.6896 22.8775 20.6085 22.8967 20.54 22.94C19.6756 23.5078 18.7122 23.9081 17.7 24.12C17.535 24.15 17.415 24.3 17.415 24.465V26.06H14.585V24.465C14.585 24.3 14.465 24.15 14.305 24.12C13.285 23.905 12.33 23.51 11.46 22.94C11.3915 22.8967 11.3104 22.8775 11.2297 22.8857C11.1491 22.8938 11.0735 22.9288 11.015 22.985L9.89 24.115L7.885 22.11L9.015 20.985C9.13 20.865 9.15 20.68 9.06 20.54C8.49254 19.676 8.09384 18.7124 7.885 17.7C7.86816 17.6196 7.8242 17.5474 7.76048 17.4955C7.69677 17.4436 7.61717 17.4152 7.535 17.415H5.94V14.585H7.535C7.705 14.585 7.85 14.465 7.885 14.3C8.095 13.285 8.49 12.33 9.06 11.46C9.15 11.32 9.13 11.135 9.015 11.015L7.885 9.89L9.89 7.885L11.015 9.01C11.135 9.13 11.32 9.15 11.46 9.06C12.33 8.49 13.285 8.095 14.305 7.88C14.465 7.85 14.585 7.7 14.585 7.535V5.94H17.415V7.535C17.415 7.7 17.535 7.85 17.7 7.88C18.715 8.095 19.67 8.49 20.54 9.06C20.68 9.15 20.87 9.13 20.985 9.015L22.115 7.885L24.115 9.89L22.99 11.015C22.87 11.135 22.85 11.32 22.945 11.46C23.51 12.33 23.91 13.285 24.12 14.3C24.155 14.465 24.3 14.585 24.465 14.585H26.06V17.415Z" fill="url(#paint1_linear_0_99)"/>
<path d="M1.42 9.79938V11.8744C1.42 12.4144 1.86 12.8594 2.405 12.8594H7.37C7.43498 12.8594 7.4973 12.8336 7.54324 12.7876C7.58919 12.7417 7.615 12.6794 7.615 12.6144C7.615 12.5494 7.58919 12.4871 7.54324 12.4411C7.4973 12.3952 7.43498 12.3694 7.37 12.3694H2.405C2.135 12.3694 1.915 12.1494 1.915 11.8794V9.79938C2.30997 9.73978 2.67048 9.54051 2.93103 9.23775C3.19159 8.93499 3.33493 8.54882 3.335 8.14937C3.335 7.23437 2.59 6.48438 1.67 6.48438C0.750002 6.48438 1.79613e-06 7.23437 1.79613e-06 8.14937C1.79613e-06 8.98437 0.615002 9.67938 1.42 9.79938ZM1.915 22.1994V20.1244C1.915 19.8544 2.135 19.6344 2.405 19.6344H7.37C7.43498 19.6344 7.4973 19.6086 7.54324 19.5626C7.58919 19.5167 7.615 19.4544 7.615 19.3894C7.615 19.3244 7.58919 19.2621 7.54324 19.2161C7.4973 19.1702 7.43498 19.1444 7.37 19.1444H2.405C1.865 19.1444 1.42 19.5844 1.42 20.1294V22.2044C1.0251 22.2621 0.664202 22.4601 0.403416 22.7622C0.142631 23.0643 -0.00058501 23.4503 1.79613e-06 23.8494C1.79613e-06 24.7694 0.750002 25.5144 1.67 25.5144C2.59 25.5144 3.335 24.7694 3.335 23.8494C3.335 23.0144 2.72 22.3194 1.915 22.1994ZM21.685 11.6894C21.67 11.6694 21.655 11.6444 21.63 11.6244C20.33 9.94438 18.29 8.86437 16 8.86437C15.285 8.86437 14.59 8.96937 13.94 9.16937C13.92 9.17438 13.905 9.17938 13.89 9.18438C13.885 9.18438 13.875 9.18437 13.87 9.18937C12.215 9.70937 10.82 10.8144 9.925 12.2594C9.91 12.2844 9.895 12.3094 9.885 12.3294C9.235 13.4044 8.865 14.6594 8.865 15.9994C8.865 18.4744 10.13 20.6594 12.05 21.9344C13.18 22.6944 14.54 23.1344 16 23.1344C16.235 23.1344 16.47 23.1244 16.7 23.0994H16.715C20.315 22.7394 23.14 19.6944 23.14 15.9994C23.14 15.0594 22.96 14.1694 22.625 13.3494C22.39 12.7494 22.07 12.1944 21.685 11.6894ZM16 9.35437C18.005 9.35437 19.805 10.2444 21.02 11.6544L19.69 11.9094C19.325 11.9794 18.99 12.1794 18.75 12.4744C18.575 12.6894 18.33 12.8344 18.085 12.8644C17.675 12.9194 17.24 12.8944 16.8 12.7894C16.6628 12.756 16.5337 12.6955 16.4203 12.6113C16.3069 12.5271 16.2116 12.4211 16.14 12.2994L15.82 11.7744C15.7537 11.6689 15.7079 11.5518 15.685 11.4294C15.585 10.8644 15.2 10.5344 14.89 10.3594C14.7 10.2494 14.54 10.0694 14.44 9.84438L14.315 9.56937C14.855 9.42937 15.42 9.35437 16 9.35437ZM9.355 15.9994C9.355 14.7744 9.69 13.6244 10.275 12.6344L10.495 12.5894C10.705 12.5494 11.015 12.6544 11.135 12.8144C11.26 12.9794 11.325 13.1694 11.325 13.3944C11.325 13.5594 11.275 13.7344 11.175 13.9444C11.02 14.2644 11.085 14.6394 11.35 14.9294C11.625 15.2444 12.045 15.3694 12.38 15.2494L12.7 15.1594C13.015 15.0744 13.345 15.1844 13.52 15.4344C13.95 16.0444 13.99 16.9894 13.61 17.6344C13.43 17.9444 13.085 18.1344 12.71 18.1344H12.21C11.825 18.1344 11.48 18.3794 11.355 18.7394L11.24 19.0794C11.12 19.4194 11.22 19.8044 11.495 20.0544C11.93 20.4544 12.115 20.8794 12.05 21.3394C11.2141 20.7224 10.5347 19.9178 10.0666 18.9903C9.59851 18.0628 9.35477 17.0383 9.355 15.9994ZM17 22.5694C17.05 22.2844 17.15 22.0044 17.29 21.7394C17.605 21.1394 17.735 20.4694 17.66 19.7994L17.635 19.5894C17.63 19.4944 17.62 19.3944 17.62 19.2944C17.62 18.1094 17.955 17.5244 18.745 17.3344C18.99 17.2744 19.27 17.2694 19.575 17.3044C20.475 17.4344 21.045 17.3344 21.37 16.9894C21.62 16.7294 21.695 16.3494 21.6 15.8494C21.36 14.7994 21.93 14.1344 22.28 13.8344C22.515 14.5144 22.645 15.2394 22.645 15.9994C22.645 19.3244 20.19 22.0844 17 22.5694Z" fill="url(#paint2_linear_0_99)"/>
</g>
<defs>
<linearGradient id="paint0_linear_0_99" x1="19.2444" y1="32" x2="19.2444" y2="0" gradientUnits="userSpaceOnUse">
<stop stop-color="#1439BF"/>
<stop offset="1" stop-color="#030B39"/>
</linearGradient>
<linearGradient id="paint1_linear_0_99" x1="16" y1="32" x2="16" y2="0" gradientUnits="userSpaceOnUse">
<stop stop-color="#1439BF"/>
<stop offset="1" stop-color="#030B39"/>
</linearGradient>
<linearGradient id="paint2_linear_0_99" x1="11.57" y1="25.5144" x2="11.57" y2="6.48438" gradientUnits="userSpaceOnUse">
<stop stop-color="#1439BF"/>
<stop offset="1" stop-color="#030B39"/>
</linearGradient>
<clipPath id="clip0_0_99">
<rect width="32" height="32" fill="white"/>
</clipPath>
</defs>
</svg>
