<svg width="32" height="32" viewBox="0 0 32 32" fill="none" xmlns="http://www.w3.org/2000/svg">
<g clip-path="url(#clip0_0_718)">
<path d="M16 12.75C14.2 12.75 12.75 14.2 12.75 16C12.75 17.8 14.2 19.25 16 19.25C17.8 19.25 19.25 17.8 19.25 16C19.25 14.2 17.8 12.75 16 12.75Z" fill="url(#paint0_linear_0_718)"/>
<path d="M32 14.75H29.15L29.1 14.4C28.95 13.15 28.6 11.9 28.1 10.8L28 10.45L29.7 9.5L29.2 6.9L26.75 8.3L26.55 8.05C25.8 7.05 24.9 6.15 23.9 5.4L23.6 5.2L24.6 3.5L22.9 1.5L21.5 3.95L21.2 3.8C20.05 3.3 18.85 3 17.55 2.85L17.2 2.8V0.85L14.75 0V2.85L14.4 2.9C13.15 3.05 11.9 3.4 10.8 3.9L10.45 4L9.5 2.3L6.9 2.8L8.3 5.25L8.05 5.45C7.05 6.2 6.15 7.1 5.4 8.1L5.2 8.4L3.5 7.4L1.5 9.1L3.95 10.5L3.8 10.8C3.3 11.95 3 13.15 2.85 14.45L2.8 14.8H0.85L0 17.25H2.85L2.9 17.6C3.05 18.85 3.4 20.1 3.9 21.2L4 21.55L2.3 22.5L2.8 25.1L5.25 23.7L5.45 23.95C6.2 24.95 7.1 25.85 8.1 26.6L8.4 26.8L7.4 28.5L9.1 30.5L10.5 28.05L10.8 28.2C11.95 28.7 13.15 29 14.45 29.15L14.8 29.2V31.15L17.25 32V29.15L17.6 29.1C18.85 28.95 20.05 28.6 21.2 28.1L21.5 27.95L22.45 29.65L25.05 29.15L23.65 26.7L23.9 26.5C24.9 25.75 25.8 24.85 26.55 23.85L26.75 23.55L28.45 24.5L30.45 22.8L28.05 21.5L28.2 21.2C28.7 20.05 29 18.85 29.15 17.55L29.2 17.2H31.15L32 14.75ZM5.9 14.35C6.35 9.8 9.95 6.25 14.5 5.9H14.8V9.5H14.55C11.95 9.8 9.9 11.85 9.5 14.45V14.65H5.9V14.35ZM14.65 26H14.35C9.9 25.65 6.3 22 6 17.55V17.25H9.5V17.5C9.8 20.1 11.8 22.2 14.4 22.5L14.65 22.55V26ZM16 20.65C13.45 20.65 11.35 18.55 11.35 16C11.35 13.45 13.45 11.35 16 11.35C18.55 11.35 20.65 13.45 20.65 16C20.65 18.55 18.55 20.65 16 20.65ZM26 17.5C25.7 21.95 22.1 25.6 17.65 25.95H17.35V22.45L17.6 22.4C20.2 22.05 22.25 20 22.5 17.4V17.15H26V17.5ZM22.5 14.65V14.45C22.1 11.85 20.05 9.85 17.45 9.5H17.2V5.9H17.5C22.05 6.3 25.65 9.85 26.1 14.35L26.15 14.65H22.5Z" fill="url(#paint1_linear_0_718)"/>
</g>
<defs>
<linearGradient id="paint0_linear_0_718" x1="16" y1="19.25" x2="16" y2="12.75" gradientUnits="userSpaceOnUse">
<stop stop-color="#1439BF"/>
<stop offset="1" stop-color="#030B39"/>
</linearGradient>
<linearGradient id="paint1_linear_0_718" x1="16" y1="32" x2="16" y2="0" gradientUnits="userSpaceOnUse">
<stop stop-color="#1439BF"/>
<stop offset="1" stop-color="#030B39"/>
</linearGradient>
<clipPath id="clip0_0_718">
<rect width="32" height="32" fill="white"/>
</clipPath>
</defs>
</svg>
