<svg width="200" height="200" viewBox="0 0 200 200" fill="none" xmlns="http://www.w3.org/2000/svg">
<path d="M100.5 101.827C124.12 101.827 143.268 82.6788 143.268 59.0591C143.268 38.0929 128.183 20.6649 108.276 17.0101V0H90.7799V17.4184C71.8452 21.8215 57.7317 38.7928 57.7317 59.0591C57.7317 82.6788 76.8802 101.827 100.5 101.827ZM100.5 44.7317C108.548 44.7317 115.08 51.2636 115.08 59.3118C115.08 67.36 108.548 73.8919 100.5 73.8919C92.4517 73.8919 85.9198 67.36 85.9198 59.3118C85.9198 51.2636 92.4517 44.7317 100.5 44.7317ZM140.333 147.716C127.502 153.47 113.535 156.415 99.3821 156.25C85.3366 156.085 71.5536 152.877 58.9369 146.909C58.7134 146.802 58.4801 146.695 58.2565 146.588C57.547 146.248 56.8374 145.888 56.1278 145.529C56.0987 145.509 56.0695 145.5 56.0404 145.48C53.552 144.197 51.1026 142.827 48.7212 141.32C33.5384 131.765 21.2911 118.196 13.3499 102.109L26.4039 95.6648C32.0221 107.047 40.1869 116.932 50.1986 124.621L64.5843 98.2212C70.1928 103.227 76.8802 107.047 84.248 109.292L68.3557 135.196C78.1924 139.347 88.7873 141.582 99.5474 141.709C110.949 141.845 122.215 139.609 132.644 135.206L116.421 108.767C123.721 106.289 130.302 102.245 135.764 97.0257L150.801 124.631C160.307 117.341 168.142 108.058 173.731 97.3756L186.629 104.121C178.319 120.014 165.76 133.301 150.364 142.506C147.973 143.935 145.514 145.247 143.015 146.462C142.802 146.569 142.588 146.676 142.374 146.773C141.83 147.035 141.285 147.288 140.741 147.531C140.605 147.589 140.469 147.657 140.333 147.716ZM38.4859 146.112C43.8222 149.932 49.5376 153.256 55.5446 156.056L28.5715 200H9.13135L38.4859 146.112ZM191.868 199.981L172.428 200L145.455 156.056C151.462 153.256 157.168 149.932 162.514 146.112L191.868 199.981Z" fill="url(#paint0_linear_0_45)"/>
<defs>
<linearGradient id="paint0_linear_0_45" x1="190.688" y1="200" x2="84.0326" y2="-33.1039" gradientUnits="userSpaceOnUse">
<stop stop-color="white"/>
<stop offset="0.7" stop-color="#504EDE"/>
<stop offset="1" stop-color="#2311BF"/>
</linearGradient>
</defs>
</svg>
