<svg width="200" height="200" viewBox="0 0 200 200" fill="none" xmlns="http://www.w3.org/2000/svg">
<path d="M60.7835 78.9358C64.6055 85.7218 64.3281 93.7818 60.7401 100.1L82.1295 112.753C85.6742 106.409 92.3475 102.136 100 102.136C107.653 102.136 114.317 106.409 117.871 112.753L139.251 100.1C135.672 93.7818 135.395 85.7218 139.217 78.9271C142.9 72.3924 149.478 68.6398 156.334 68.3884V43.0557C149.478 42.8044 142.9 39.0604 139.217 32.5171C135.681 26.2338 135.655 18.8584 138.515 12.7831L117.03 0.0690918C113.321 5.64176 107.081 9.30776 100 9.30776C92.9195 9.30776 86.6795 5.64176 82.9701 0.0690918L61.4854 12.7831C64.3454 18.8584 64.3195 26.2338 60.7835 32.5171C57.1002 39.0518 50.5222 42.8044 43.6668 43.0557V68.3884C50.5222 68.6398 57.1002 72.3924 60.7835 78.9271V78.9358ZM100 25.7224C116.753 25.7224 130.334 39.3031 130.334 56.0557C130.334 72.8084 116.753 86.3891 100 86.3891C83.2475 86.3891 69.6668 72.8084 69.6668 56.0557C69.6668 39.3031 83.2475 25.7224 100 25.7224ZM87.0002 56.0557C87.0002 48.8797 92.8242 43.0557 100 43.0557C107.176 43.0557 113 48.8797 113 56.0557C113 63.2317 107.176 69.0557 100 69.0557C92.8242 69.0557 87.0002 63.2317 87.0002 56.0557ZM113 186.931L143.334 191.264V199.931H56.6668V191.264L87.0002 186.931L84.3308 173.064H115.669L113 186.931ZM186.667 43.0644V147.064C186.667 156.485 179.144 164.155 169.784 164.389H169.334H30.6668C21.2462 164.389 13.5762 156.866 13.3422 147.506V147.056L13.3335 43.0557H35.0002V56.0557H26.3335V142.722H173.667V56.0557H165V43.0557H186.667V43.0644Z" fill="url(#paint0_linear_0_94)"/>
<defs>
<linearGradient id="paint0_linear_0_94" x1="185.547" y1="199.931" x2="75.3571" y2="-28.6625" gradientUnits="userSpaceOnUse">
<stop stop-color="white"/>
<stop offset="0.7" stop-color="#504EDE"/>
<stop offset="1" stop-color="#2311BF"/>
</linearGradient>
</defs>
</svg>
