<svg width="200" height="200" viewBox="0 0 200 200" fill="none" xmlns="http://www.w3.org/2000/svg">
<path d="M141.317 153.555L154.146 197.934H50.7317L63.561 153.555C63.561 153.555 63.5707 153.525 63.5805 153.516C64.7902 149.356 67.3073 145.848 70.6049 143.383C70.6146 143.383 70.6244 143.364 70.6341 143.364C71.0341 143.062 71.4439 142.779 71.8732 142.506C71.9122 142.487 71.9415 142.467 71.9805 142.448C72.3805 142.194 72.7902 141.961 73.2098 141.737C73.2878 141.698 73.3659 141.659 73.4439 141.62C73.8244 141.425 74.2146 141.24 74.6049 141.064C74.722 141.016 74.8488 140.977 74.9756 140.928C75.3366 140.782 75.6976 140.636 76.0585 140.509C76.2439 140.45 76.4293 140.402 76.6146 140.343C76.9268 140.246 77.239 140.148 77.561 140.061C77.8146 139.993 78.0878 139.954 78.3415 139.895C78.5951 139.846 78.8488 139.778 79.1024 139.739C79.4244 139.681 79.7561 139.652 80.0878 139.613C80.2829 139.593 80.4878 139.554 80.6829 139.535C81.2195 139.486 81.7561 139.466 82.3024 139.466H122.566C123.112 139.466 123.649 139.486 124.185 139.535C124.39 139.554 124.595 139.583 124.81 139.613C125.132 139.652 125.454 139.681 125.776 139.729C126.029 139.768 126.283 139.837 126.537 139.885C126.8 139.944 127.063 139.983 127.317 140.051C127.629 140.129 127.932 140.226 128.244 140.324C128.439 140.382 128.634 140.431 128.82 140.489C129.18 140.616 129.541 140.762 129.893 140.899C130.02 140.947 130.146 140.986 130.273 141.045C130.663 141.21 131.054 141.405 131.434 141.6C131.512 141.639 131.59 141.668 131.668 141.717C132.088 141.941 132.498 142.175 132.898 142.428C132.937 142.448 132.966 142.467 133.005 142.487C133.424 142.76 133.844 143.042 134.244 143.344C134.254 143.344 134.263 143.364 134.273 143.364C137.571 145.829 140.078 149.336 141.298 153.496C141.298 153.496 141.307 153.525 141.317 153.535V153.555ZM76.5561 86.8642C76.4878 86.9909 76.4293 87.1175 76.361 87.2442C76.1463 87.6631 75.9415 88.0918 75.7463 88.5303C75.6878 88.6569 75.639 88.7738 75.5805 88.9005C75.3463 89.4461 75.122 89.9917 74.9171 90.5568C74.8878 90.6347 74.8683 90.7029 74.839 90.7809C74.6634 91.268 74.5073 91.7649 74.361 92.2618C74.3122 92.4177 74.2732 92.5833 74.2244 92.7392C74.0878 93.2166 73.9707 93.7038 73.8634 94.2007C73.8439 94.3078 73.8146 94.4053 73.7951 94.5124C73.6683 95.097 73.5707 95.6913 73.4829 96.2857C73.4634 96.4318 73.4439 96.5779 73.4244 96.7241C73.3659 97.1917 73.3171 97.6692 73.2781 98.1466C73.2683 98.3219 73.2488 98.4973 73.239 98.6727C73.2 99.2865 73.1707 99.9003 73.1707 100.524C73.1707 101.235 73.2098 101.937 73.2585 102.628C73.2683 102.784 73.278 102.94 73.2976 103.086C73.3561 103.768 73.4341 104.441 73.5415 105.113C73.561 105.21 73.5805 105.298 73.5902 105.395C73.6976 106.009 73.8146 106.613 73.9512 107.208C73.9805 107.324 74.0098 107.451 74.039 107.568C74.2049 108.221 74.3805 108.854 74.5854 109.487C74.6244 109.604 74.6634 109.721 74.7024 109.838C74.9073 110.442 75.122 111.027 75.3659 111.611C75.3854 111.66 75.4049 111.718 75.4342 111.777C75.6976 112.401 75.9805 113.014 76.2829 113.609C76.3415 113.716 76.3902 113.823 76.4488 113.93C77.0829 115.148 77.7951 116.307 78.5854 117.418C78.6439 117.496 78.6927 117.574 78.7512 117.652C79.1512 118.207 79.5805 118.753 80.0195 119.279C80.039 119.308 80.0683 119.337 80.0878 119.367C80.5268 119.893 80.9951 120.399 81.4732 120.887C81.5024 120.916 81.5317 120.945 81.561 120.974C82.0488 121.471 82.5659 121.958 83.0927 122.426C83.1317 122.465 83.1707 122.494 83.2195 122.533C84.2927 123.468 85.4244 124.326 86.6244 125.096C86.6634 125.125 86.7122 125.154 86.7512 125.174C87.961 125.943 89.239 126.635 90.5659 127.22C90.5951 127.229 90.6244 127.249 90.6537 127.259C94.2634 128.856 98.2634 129.743 102.468 129.743C106.673 129.743 110.976 128.778 114.693 127.073C114.712 127.073 114.732 127.054 114.751 127.044C115.102 126.879 115.454 126.713 115.795 126.538C115.844 126.518 115.893 126.489 115.941 126.469C116.273 126.294 116.595 126.119 116.917 125.943C116.976 125.914 117.034 125.875 117.083 125.846C117.405 125.661 117.717 125.476 118.02 125.281C118.068 125.251 118.127 125.212 118.176 125.183C118.488 124.979 118.8 124.784 119.102 124.569C119.132 124.55 119.161 124.521 119.2 124.501C120.556 123.556 121.824 122.504 122.995 121.354C122.995 121.354 122.995 121.354 123.005 121.345C123.239 121.111 123.473 120.867 123.698 120.633C123.776 120.555 123.854 120.468 123.932 120.39C124.137 120.175 124.332 119.951 124.527 119.727C124.624 119.61 124.722 119.503 124.82 119.386C124.995 119.172 125.171 118.958 125.346 118.743C125.454 118.607 125.561 118.48 125.659 118.344C125.824 118.129 125.98 117.925 126.137 117.71C126.244 117.564 126.351 117.418 126.459 117.262C126.605 117.058 126.751 116.843 126.888 116.629C126.995 116.463 127.102 116.307 127.2 116.142C127.337 115.937 127.463 115.723 127.59 115.508C127.698 115.333 127.795 115.148 127.902 114.973C128.02 114.768 128.137 114.563 128.254 114.349C128.361 114.144 128.468 113.93 128.576 113.716C128.702 113.472 128.82 113.229 128.937 112.975C129.093 112.644 129.249 112.303 129.395 111.962C129.473 111.787 129.532 111.611 129.61 111.436C129.707 111.192 129.805 110.949 129.902 110.695C129.971 110.51 130.039 110.325 130.098 110.13C130.185 109.887 130.263 109.643 130.341 109.4C130.4 109.205 130.459 109.01 130.517 108.815C130.585 108.572 130.663 108.318 130.732 108.075C130.78 107.88 130.829 107.685 130.878 107.49C130.937 107.237 130.995 106.983 131.054 106.72C131.093 106.525 131.141 106.331 131.171 106.136C131.22 105.873 131.268 105.61 131.317 105.347C131.346 105.152 131.385 104.957 131.415 104.762C131.454 104.479 131.493 104.207 131.522 103.924C131.541 103.739 131.571 103.554 131.58 103.369C131.61 103.057 131.629 102.735 131.649 102.414C131.659 102.258 131.668 102.102 131.678 101.946C131.698 101.469 131.717 100.992 131.717 100.514C131.717 99.8905 131.688 99.2767 131.649 98.6629C131.639 98.4876 131.62 98.3122 131.61 98.1368C131.571 97.6594 131.522 97.1917 131.463 96.7143C131.444 96.5682 131.424 96.4221 131.405 96.2759C131.317 95.6816 131.22 95.0873 131.093 94.5027C131.073 94.3955 131.044 94.2981 131.024 94.1909C130.917 93.7038 130.8 93.2166 130.663 92.7392C130.615 92.5833 130.576 92.4177 130.527 92.2618C130.38 91.7649 130.224 91.268 130.049 90.7809C130.02 90.7029 130 90.6347 129.971 90.5568C129.766 90.0014 129.541 89.4461 129.307 88.9005C129.249 88.7738 129.2 88.6569 129.141 88.5303C128.946 88.0918 128.741 87.6729 128.527 87.2442C128.459 87.1175 128.4 86.9909 128.332 86.8642C123.424 77.5987 113.678 71.2755 102.449 71.2755C91.2195 71.2755 81.4732 77.5889 76.5659 86.8642H76.5561ZM200 2.5V70.7007H127.571C121.951 65.9753 114.985 62.8089 107.317 61.8541V2.5H200ZM190.244 13.2172L162.449 16.8027L171.58 25.9415L159.512 37.9936L140.976 19.482L112.654 47.7755L119.551 54.6638L140.976 33.2682L159.512 51.7799L178.468 32.8396L187.044 41.4133L190.244 13.227V13.2172ZM138.39 85.3151H200V153.516H151.454L150.683 150.856C147.551 140.022 138.537 132.12 127.717 130.191C133.395 125.368 137.659 118.938 139.844 111.621H190.244V101.878H141.424C141.444 101.42 141.463 100.972 141.463 100.504C141.463 95.1165 140.371 89.982 138.39 85.3151ZM190.244 127.21H146.341V136.953H190.244V127.21ZM77.3073 70.7007H0V2.5H92.6829V62.7602C86.9366 64.2411 81.7073 66.9886 77.3073 70.7007ZM9.7561 28.806H82.9268V19.063H9.7561V28.806ZM58.5366 44.3947H9.7561V54.1376H58.5366V44.3947ZM53.4244 153.516H0V85.3151H66.4878C64.5073 89.982 63.4146 95.1165 63.4146 100.504C63.4146 112.4 68.7512 123.04 77.161 130.191C66.3415 132.12 57.3268 140.032 54.1951 150.856L53.4244 153.516ZM19.5122 129.158H9.7561V143.773H19.5122V129.158ZM37.0732 113.57H27.3171V143.773H37.0732V113.57ZM44.8781 143.773H54.6341V95.058H44.8781V143.773Z" fill="url(#paint0_linear_0_810)"/>
<defs>
<linearGradient id="paint0_linear_0_810" x1="198.708" y1="197.934" x2="102.271" y2="-38.1382" gradientUnits="userSpaceOnUse">
<stop stop-color="white"/>
<stop offset="0.7" stop-color="#504EDE"/>
<stop offset="1" stop-color="#2311BF"/>
</linearGradient>
</defs>
</svg>
