<svg width="32" height="32" viewBox="0 0 32 32" fill="none" xmlns="http://www.w3.org/2000/svg">
<path d="M28.4247 26.575H26.5447V25.045C26.5447 24.06 25.7447 23.265 24.7647 23.265H16.3947V21.615H17.5897C17.7897 21.615 17.9497 21.455 17.9497 21.255V19.595C18.9797 19.365 19.9447 18.965 20.8347 18.4L22.0097 19.575C22.0747 19.64 22.1647 19.68 22.2597 19.68H22.2647C22.3597 19.68 22.4497 19.645 22.5147 19.575L24.7647 17.325C24.9047 17.185 24.9047 16.96 24.7647 16.82L23.5897 15.645C24.1547 14.755 24.5547 13.785 24.7847 12.76H26.4447C26.6447 12.76 26.8047 12.6 26.8047 12.4V9.22C26.8047 9.02 26.6447 8.86 26.4447 8.86H24.7847C24.5547 7.835 24.1547 6.865 23.5897 5.98L24.7647 4.8C24.8347 4.735 24.8697 4.645 24.8697 4.55C24.8697 4.45 24.8347 4.36 24.7647 4.295L22.5147 2.045C22.4485 1.97839 22.3586 1.94065 22.2647 1.94H22.2597C22.1647 1.94 22.0747 1.98 22.0097 2.045L20.8347 3.22C19.9524 2.65202 18.9752 2.24725 17.9497 2.025V0.36C17.9497 0.16 17.7897 0 17.5897 0H14.4097C14.2147 0 14.0497 0.16 14.0497 0.36V2.025C13.0247 2.25 12.0497 2.65 11.1647 3.215L9.98969 2.04C9.921 1.97405 9.8299 1.93654 9.73469 1.935C9.63469 1.935 9.54469 1.975 9.47969 2.04L7.22969 4.29C7.08969 4.43 7.08969 4.655 7.22969 4.795L8.40969 5.975C7.84261 6.85596 7.43789 7.83136 7.21469 8.855H5.54969C5.34969 8.855 5.18969 9.015 5.18969 9.215V12.395C5.18969 12.595 5.34969 12.755 5.54969 12.755H7.21469C7.43969 13.78 7.83969 14.75 8.40469 15.64L7.22969 16.815C7.08969 16.955 7.08969 17.18 7.22969 17.32L9.47969 19.57C9.54469 19.635 9.63469 19.675 9.73469 19.675C9.82969 19.675 9.91969 19.64 9.98969 19.57L11.1647 18.395C12.0497 18.96 13.0197 19.36 14.0447 19.59V21.25C14.0447 21.45 14.2097 21.61 14.4047 21.61H15.5997V23.26H7.23469C6.24969 23.26 5.45469 24.06 5.45469 25.04V26.57H3.57969C3.28969 26.57 3.05469 26.805 3.05469 27.095V31.47C3.05469 31.76 3.28969 31.995 3.57969 31.995H8.12469C8.41469 31.995 8.64969 31.76 8.64969 31.47V27.1C8.64969 26.81 8.41469 26.575 8.12469 26.575H6.24969V25.045C6.24969 24.5 6.69469 24.055 7.23969 24.055H15.5997V26.62C14.2947 26.81 13.2847 27.925 13.2847 29.29C13.2897 30.785 14.4997 32 15.9997 32C17.4997 32 18.7147 30.785 18.7147 29.29C18.7147 27.925 17.7047 26.81 16.3947 26.62V24.055H24.7597C25.3047 24.055 25.7497 24.5 25.7497 25.045V26.575H23.8747C23.5847 26.575 23.3447 26.81 23.3447 27.1V31.475C23.3447 31.765 23.5847 32 23.8747 32H28.4197C28.7097 32 28.9447 31.765 28.9447 31.475V27.1C28.9497 26.81 28.7097 26.575 28.4247 26.575ZM15.9997 17.055C12.5547 17.055 9.75469 14.25 9.75469 10.805C9.75469 7.36 12.5497 4.555 15.9997 4.555C19.4497 4.555 22.2497 7.36 22.2497 10.805C22.2497 14.25 19.4397 17.055 15.9997 17.055Z" fill="url(#paint0_linear_0_552)"/>
<path d="M19.2301 9.52344L17.1501 9.21844L16.2201 7.33844C16.1401 7.16844 15.8651 7.16844 15.7801 7.33844L14.8501 9.21844L12.7751 9.52344C12.6801 9.53844 12.6051 9.60344 12.5751 9.68844C12.5451 9.77844 12.5701 9.87844 12.6351 9.94344L14.1401 11.4084L13.7851 13.4784C13.7701 13.5684 13.8051 13.6634 13.8851 13.7184C13.9251 13.7484 13.9751 13.7634 14.0301 13.7634C14.0701 13.7634 14.1051 13.7534 14.1401 13.7384L16.0001 12.7584L17.8601 13.7384C17.9401 13.7784 18.0401 13.7734 18.1201 13.7184C18.1951 13.6634 18.2301 13.5684 18.2151 13.4784L17.8601 11.4084L19.3651 9.94344C19.4301 9.87844 19.4551 9.77844 19.4301 9.68844C19.4127 9.64671 19.3855 9.60985 19.3506 9.58109C19.3157 9.55233 19.2744 9.53254 19.2301 9.52344Z" fill="url(#paint1_linear_0_552)"/>
<defs>
<linearGradient id="paint0_linear_0_552" x1="15.9997" y1="32" x2="15.9997" y2="0" gradientUnits="userSpaceOnUse">
<stop stop-color="#1439BF"/>
<stop offset="1" stop-color="#030B39"/>
</linearGradient>
<linearGradient id="paint1_linear_0_552" x1="16.0011" y1="13.7647" x2="16.0011" y2="7.21094" gradientUnits="userSpaceOnUse">
<stop stop-color="#1439BF"/>
<stop offset="1" stop-color="#030B39"/>
</linearGradient>
</defs>
</svg>
