<svg width="32" height="32" viewBox="0 0 32 32" fill="none" xmlns="http://www.w3.org/2000/svg">
<g clip-path="url(#clip0_0_429)">
<path d="M30.37 0.784912H1.63C0.73 0.784912 0 1.51491 0 2.41991V29.5799C0 30.4849 0.73 31.2149 1.63 31.2149H30.37C31.27 31.2149 32 30.4849 32 29.5799V2.41991C32 1.51491 31.27 0.784912 30.37 0.784912ZM17.31 3.90991H28.57C28.7079 3.91587 28.8382 3.97485 28.9336 4.07453C29.0291 4.17421 29.0824 4.30689 29.0824 4.44491C29.0824 4.58293 29.0291 4.71562 28.9336 4.8153C28.8382 4.91498 28.7079 4.97395 28.57 4.97991H17.31C17.1721 4.97395 17.0418 4.91498 16.9464 4.8153C16.8509 4.71562 16.7976 4.58293 16.7976 4.44491C16.7976 4.30689 16.8509 4.17421 16.9464 4.07453C17.0418 3.97485 17.1721 3.91587 17.31 3.90991ZM13.485 2.62991C14.485 2.62991 15.3 3.44491 15.3 4.44491C15.3 5.44491 14.485 6.25491 13.485 6.25491C12.485 6.25491 11.675 5.44491 11.675 4.44491C11.675 3.44491 12.485 2.62991 13.485 2.62991ZM9.015 2.62991C10.015 2.62991 10.83 3.44491 10.83 4.44491C10.83 5.44491 10.015 6.25491 9.015 6.25491C8.015 6.25491 7.205 5.44491 7.205 4.44491C7.205 3.44491 8.015 2.62991 9.015 2.62991ZM4.58 2.62991C5.575 2.62991 6.39 3.44491 6.39 4.44491C6.39 4.92562 6.19904 5.38663 5.85913 5.72654C5.51922 6.06645 5.0582 6.25741 4.5775 6.25741C4.0968 6.25741 3.63578 6.06645 3.29587 5.72654C2.95596 5.38663 2.765 4.92562 2.765 4.44491C2.765 3.44491 3.58 2.62991 4.58 2.62991ZM30.925 29.5799C30.925 29.8899 30.675 30.1399 30.37 30.1399H1.63C1.32 30.1399 1.07 29.8899 1.07 29.5799V7.94991H30.925V29.5799Z" fill="url(#paint0_linear_0_429)"/>
<path d="M5.0351 10.7699H21.6651C22.0401 10.7699 22.3501 10.4649 22.3501 10.0849C22.3501 9.7049 22.0451 9.3999 21.6651 9.3999H5.0351C4.6601 9.3999 4.3501 9.7049 4.3501 10.0849C4.3501 10.4649 4.6551 10.7699 5.0351 10.7699ZM5.0351 14.3549H8.6201C8.9951 14.3549 9.3051 14.0499 9.3051 13.6699C9.3051 13.2899 9.0001 12.9849 8.6201 12.9849H5.0351C4.6601 12.9849 4.3501 13.2899 4.3501 13.6699C4.3501 14.0499 4.6551 14.3549 5.0351 14.3549ZM5.0351 17.9399H9.6151C9.9901 17.9399 10.3001 17.6349 10.3001 17.2549C10.3001 16.8799 9.9951 16.5699 9.6151 16.5699H5.0351C4.6601 16.5699 4.3501 16.8749 4.3501 17.2549C4.3501 17.6299 4.6551 17.9399 5.0351 17.9399ZM5.0351 21.5199H10.5201C10.8951 21.5199 11.2051 21.2149 11.2051 20.8349C11.2051 20.4549 10.9001 20.1499 10.5201 20.1499H5.0351C4.6601 20.1499 4.3501 20.4549 4.3501 20.8349C4.3501 21.2149 4.6551 21.5199 5.0351 21.5199ZM5.0351 25.1049H11.3051C11.6801 25.1049 11.9901 24.7999 11.9901 24.4199C11.9901 24.0399 11.6851 23.7349 11.3051 23.7349H5.0351C4.6601 23.7349 4.3501 24.0399 4.3501 24.4199C4.3501 24.7999 4.6551 25.1049 5.0351 25.1049ZM5.0351 28.6899H7.3251C7.7001 28.6899 8.0101 28.3849 8.0101 28.0049C8.0101 27.6299 7.7051 27.3199 7.3251 27.3199H5.0351C4.6601 27.3199 4.3501 27.6249 4.3501 28.0049C4.3501 28.3799 4.6551 28.6899 5.0351 28.6899ZM15.3201 13.6699C15.3201 13.2949 15.0151 12.9849 14.6351 12.9849H11.0501C10.6751 12.9849 10.3651 13.2899 10.3651 13.6699C10.3651 14.0499 10.6701 14.3549 11.0501 14.3549H14.6351C15.0151 14.3549 15.3201 14.0499 15.3201 13.6699ZM14.7801 27.3249H9.7651C9.3901 27.3249 9.0801 27.6299 9.0801 28.0099C9.0801 28.3849 9.3851 28.6949 9.7651 28.6949H14.7801C15.1551 28.6949 15.4651 28.3899 15.4651 28.0099C15.4651 27.6299 15.1601 27.3249 14.7801 27.3249ZM18.0701 22.2599L14.9651 19.5349L18.0651 16.8649C18.1705 16.7739 18.2456 16.6529 18.2802 16.518C18.3149 16.3832 18.3076 16.241 18.2592 16.1104C18.2108 15.9799 18.1236 15.8672 18.0094 15.7876C17.8952 15.708 17.7593 15.6652 17.6201 15.6649C17.4551 15.6649 17.3001 15.7249 17.1751 15.8299L13.4751 19.0099C13.3251 19.1399 13.2401 19.3249 13.2401 19.5199C13.2401 19.7199 13.3251 19.9099 13.4751 20.0399L17.1701 23.2799C17.2376 23.3394 17.3161 23.3849 17.4013 23.4138C17.4864 23.4427 17.5764 23.4545 17.6661 23.4485C17.7559 23.4424 17.8435 23.4187 17.924 23.3786C18.0045 23.3385 18.0762 23.2829 18.1351 23.2149C18.3851 22.9399 18.3551 22.5099 18.0701 22.2599ZM21.5151 14.0699L18.2101 24.2099C18.0951 24.5699 18.2901 24.9549 18.6501 25.0699C18.7151 25.0899 18.7851 25.0999 18.8601 25.0999C19.1551 25.0999 19.4201 24.9099 19.5101 24.6299L22.8151 14.4899C22.9301 14.1299 22.7351 13.7449 22.3751 13.6299C22.3101 13.6099 22.2401 13.5999 22.1701 13.5999C21.8651 13.5999 21.6051 13.7849 21.5151 14.0699ZM22.8501 16.8699L25.9101 19.4599L22.6351 22.2549C22.3501 22.4999 22.3151 22.9299 22.5601 23.2199C22.6901 23.3699 22.8801 23.4599 23.0801 23.4599C23.2451 23.4599 23.4001 23.3999 23.5251 23.2949L27.4101 19.9799C27.5651 19.8499 27.6501 19.6599 27.6501 19.4599C27.6501 19.2599 27.5601 19.0699 27.4101 18.9399L23.7401 15.8299C23.6716 15.7723 23.5923 15.7287 23.5069 15.7018C23.4215 15.6749 23.3316 15.6651 23.2424 15.673C23.1532 15.6809 23.0665 15.7063 22.9871 15.7478C22.9078 15.7893 22.8374 15.8461 22.7801 15.9149C22.5251 16.1999 22.5651 16.6299 22.8501 16.8699Z" fill="url(#paint1_linear_0_429)"/>
</g>
<defs>
<linearGradient id="paint0_linear_0_429" x1="16" y1="31.2149" x2="16" y2="0.784912" gradientUnits="userSpaceOnUse">
<stop stop-color="#1439BF"/>
<stop offset="1" stop-color="#030B39"/>
</linearGradient>
<linearGradient id="paint1_linear_0_429" x1="16.0001" y1="28.6949" x2="16.0001" y2="9.3999" gradientUnits="userSpaceOnUse">
<stop stop-color="#1439BF"/>
<stop offset="1" stop-color="#030B39"/>
</linearGradient>
<clipPath id="clip0_0_429">
<rect width="32" height="32" fill="white"/>
</clipPath>
</defs>
</svg>
