<svg width="32" height="32" viewBox="0 0 32 32" fill="none" xmlns="http://www.w3.org/2000/svg">
<g clip-path="url(#clip0_0_510)">
<path d="M20.6752 20.625V15.83C20.6752 15.285 20.3852 14.805 19.9502 14.55V12.905C19.9502 11.85 19.5402 10.855 18.7952 10.115C18.4292 9.7463 17.9937 9.45393 17.514 9.25481C17.0342 9.05569 16.5197 8.95377 16.0002 8.95497C13.8252 8.95497 12.0552 10.725 12.0552 12.905V14.55C11.6202 14.815 11.3252 15.29 11.3252 15.835V20.63C11.3252 21.455 12.0002 22.125 12.8202 22.125H19.1802C20.0052 22.125 20.6752 21.455 20.6752 20.625ZM16.0002 9.73997C16.8452 9.73997 17.6402 10.07 18.2402 10.67C18.5344 10.9629 18.7675 11.3113 18.9263 11.6949C19.0851 12.0785 19.1663 12.4898 19.1652 12.905V14.335H12.8352V12.905C12.8352 11.16 14.2552 9.73997 16.0002 9.73997ZM12.5252 15.18C12.5452 15.175 12.5602 15.17 12.5802 15.16C12.5902 15.155 12.5952 15.155 12.6052 15.15C12.6752 15.125 12.7452 15.115 12.8202 15.115H19.1802C19.2602 15.115 19.3402 15.13 19.4102 15.155C19.4252 15.16 19.4402 15.165 19.4602 15.17C19.7152 15.28 19.8952 15.535 19.8952 15.83V20.625C19.8952 21.015 19.5752 21.34 19.1802 21.34H12.8152C12.4252 21.34 12.1052 21.02 12.1052 20.625V15.83C12.1102 15.545 12.2802 15.295 12.5252 15.18Z" fill="url(#paint0_linear_0_510)"/>
<path d="M15.6498 18.975V20.32C15.6498 20.535 15.8248 20.715 16.0398 20.715C16.2548 20.715 16.4348 20.54 16.4348 20.32V18.98C16.9998 18.805 17.4148 18.28 17.4148 17.66C17.4135 17.2971 17.2687 16.9494 17.0121 16.6928C16.7554 16.4361 16.4077 16.2914 16.0448 16.29C15.2848 16.29 14.6748 16.91 14.6748 17.66C14.6748 18.285 15.0848 18.81 15.6498 18.975Z" fill="url(#paint1_linear_0_510)"/>
<path d="M30.475 22.095V20.18C30.475 19.565 29.975 19.065 29.36 19.065H23.82C24.125 18.235 24.37 17.35 24.545 16.415H26.355C26.4448 16.8108 26.6664 17.1644 26.9834 17.4178C27.3004 17.6713 27.6941 17.8095 28.1 17.81C29.085 17.81 29.89 17.01 29.89 16.02C29.89 15.035 29.09 14.23 28.1 14.23C27.25 14.23 26.535 14.83 26.355 15.625H24.67C24.785 14.85 24.85 14.035 24.87 13.19H29.365C29.98 13.19 30.48 12.69 30.48 12.075V10.16C31.28 9.98 31.875 9.27 31.875 8.415C31.875 7.9396 31.6861 7.48367 31.35 7.14751C31.0138 6.81135 30.5579 6.6225 30.0825 6.6225C29.6071 6.6225 29.1512 6.81135 28.815 7.14751C28.4789 7.48367 28.29 7.9396 28.29 8.415C28.29 9.265 28.89 9.98 29.685 10.16V12.075C29.685 12.255 29.535 12.405 29.355 12.405H24.87C24.865 11.41 24.8 10.37 24.68 9.285C24.66 9.085 24.485 8.94 24.275 8.94C24.195 8.945 24.12 8.945 24.045 8.945C22.26 8.945 21.285 7.875 21.07 5.68C21.05 5.48 20.88 5.33 20.68 5.33H19.825V2.51C19.825 2.33 19.975 2.185 20.15 2.185H22.065C22.1631 2.61402 22.4157 2.99189 22.7747 3.24642C23.1338 3.50094 23.574 3.61429 24.0113 3.56481C24.4486 3.51533 24.8523 3.30648 25.1454 2.97817C25.4384 2.64986 25.6003 2.22509 25.6 1.785C25.6 0.795 24.8 0 23.815 0C22.965 0 22.25 0.6 22.07 1.395H20.155C19.54 1.395 19.045 1.895 19.045 2.51V5.325H16.395V3.53C17.195 3.35 17.785 2.64 17.785 1.785C17.785 0.8 16.985 0 16 0C15.015 0 14.21 0.8 14.21 1.79C14.21 2.64 14.81 3.355 15.605 3.535V5.33H13.16V2.51C13.16 1.895 12.66 1.395 12.045 1.395H10.135C10.0452 0.999192 9.8236 0.645617 9.50658 0.392181C9.18956 0.138745 8.79587 0.000469446 8.39 0C7.405 0 6.6 0.8 6.6 1.79C6.6 2.78 7.4 3.58 8.39 3.58C9.24 3.58 9.955 2.985 10.14 2.19H12.05C12.235 2.19 12.38 2.34 12.38 2.515V5.33H11.31C11.105 5.33 10.94 5.485 10.92 5.68C10.7 7.875 9.725 8.945 7.93 8.945C7.86 8.945 7.79 8.94 7.71 8.94C7.505 8.94 7.335 9.09 7.315 9.285C7.19742 10.321 7.134 11.3624 7.125 12.405H2.64C2.55248 12.405 2.46854 12.3702 2.40665 12.3083C2.34477 12.2465 2.31 12.1625 2.31 12.075V10.16C2.70581 10.0702 3.05938 9.8486 3.31282 9.53158C3.56625 9.21456 3.70453 8.82087 3.705 8.415C3.705 7.43 2.905 6.625 1.915 6.625C0.925 6.625 0.125 7.425 0.125 8.415C0.125 9.265 0.725 9.98 1.52 10.16V12.075C1.52 12.69 2.02 13.19 2.635 13.19H7.135C7.155 14.035 7.22 14.85 7.33 15.625H5.61C5.52017 15.2292 5.2986 14.8756 4.98158 14.6222C4.66456 14.3687 4.27087 14.2305 3.865 14.23C2.88 14.23 2.07 15.03 2.07 16.02C2.07 17.005 2.875 17.81 3.865 17.81C4.715 17.81 5.43 17.21 5.61 16.415H7.46C7.635 17.35 7.87 18.235 8.185 19.07H2.64C2.025 19.07 1.52 19.57 1.52 20.185V22.1C1.09078 22.198 0.712644 22.4506 0.4577 22.8095C0.202756 23.1685 0.0888354 23.6087 0.137659 24.0463C0.186483 24.4838 0.394636 24.8881 0.722429 25.1821C1.05022 25.476 1.47473 25.639 1.915 25.64C2.905 25.64 3.705 24.84 3.705 23.845C3.705 22.995 3.105 22.28 2.31 22.1V20.185C2.31 20.005 2.46 19.855 2.645 19.855H8.5C9.37 21.83 10.665 23.49 12.385 24.835V29.49C12.385 29.675 12.235 29.82 12.055 29.82H10.14C10.0491 29.4238 9.82651 29.0702 9.50867 28.8168C9.19082 28.5635 8.79647 28.4253 8.39 28.425C7.405 28.425 6.6 29.225 6.6 30.215C6.6 31.2 7.4 32.005 8.39 32.005C9.24 32.005 9.96 31.405 10.14 30.61H12.05C12.665 30.61 13.165 30.11 13.165 29.495V25.415C13.9375 25.9423 14.7538 26.4023 15.605 26.79V28.475C14.805 28.655 14.21 29.365 14.21 30.22C14.21 31.205 15.01 32.01 16 32.01C16.99 32.01 17.79 31.21 17.79 30.22C17.79 29.37 17.195 28.655 16.4 28.475V26.79C17.365 26.345 18.25 25.84 19.045 25.27V29.495C19.045 30.11 19.545 30.61 20.16 30.61H22.075C22.164 31.0049 22.3849 31.3576 22.7011 31.6103C23.0174 31.8629 23.4102 32.0004 23.815 32C24.8 32 25.605 31.2 25.605 30.21C25.605 29.225 24.805 28.42 23.815 28.42C22.965 28.42 22.25 29.02 22.07 29.815H20.155C20.0675 29.815 19.9835 29.7802 19.9217 29.7183C19.8598 29.6565 19.825 29.5725 19.825 29.485V24.665C21.435 23.35 22.66 21.745 23.495 19.85H29.355C29.54 19.85 29.685 20 29.685 20.18V22.095C28.885 22.275 28.29 22.985 28.29 23.84C28.29 24.3154 28.4789 24.7713 28.815 25.1075C29.1512 25.4436 29.6071 25.6325 30.0825 25.6325C30.5579 25.6325 31.0138 25.4436 31.35 25.1075C31.6861 24.7713 31.875 24.3154 31.875 23.84C31.875 22.985 31.275 22.27 30.475 22.095ZM16 26.105C14.925 25.61 13.96 25.04 13.1 24.39V24.385C13.09 24.38 13.085 24.375 13.075 24.37C13.03 24.315 12.975 24.27 12.905 24.245L12.9 24.24C8.985 21.165 7.4 16.38 8.055 9.725C10.115 9.68 11.33 8.465 11.66 6.11H15.98C15.985 6.11 15.99 6.115 15.995 6.115C16 6.115 16.005 6.11 16.01 6.11H20.33C20.66 8.46 21.87 9.675 23.935 9.725C24.75 17.915 22.15 23.275 16 26.105Z" fill="url(#paint2_linear_0_510)"/>
</g>
<defs>
<linearGradient id="paint0_linear_0_510" x1="16.0002" y1="22.125" x2="16.0002" y2="8.95496" gradientUnits="userSpaceOnUse">
<stop stop-color="#1439BF"/>
<stop offset="1" stop-color="#030B39"/>
</linearGradient>
<linearGradient id="paint1_linear_0_510" x1="16.0448" y1="20.715" x2="16.0448" y2="16.29" gradientUnits="userSpaceOnUse">
<stop stop-color="#1439BF"/>
<stop offset="1" stop-color="#030B39"/>
</linearGradient>
<linearGradient id="paint2_linear_0_510" x1="16" y1="32.01" x2="16" y2="0" gradientUnits="userSpaceOnUse">
<stop stop-color="#1439BF"/>
<stop offset="1" stop-color="#030B39"/>
</linearGradient>
<clipPath id="clip0_0_510">
<rect width="32" height="32" fill="white"/>
</clipPath>
</defs>
</svg>
