<svg width="16" height="16" viewBox="0 0 16 16" fill="none" xmlns="http://www.w3.org/2000/svg">
<path d="M13.855 12.6875C13.53 12.6875 13.2675 12.9525 13.2675 13.275V14.82H2.7375V13.275C2.7375 12.95 2.4725 12.6875 2.15 12.6875C1.8275 12.6875 1.5625 12.9525 1.5625 13.275V15.4075C1.5625 15.7325 1.8275 15.995 2.15 15.995H13.8575C14.1825 15.995 14.445 15.73 14.445 15.4075V13.275C14.445 12.9525 14.18 12.6875 13.855 12.6875Z" fill="url(#paint0_linear_0_294)"/>
<path d="M7.63858 13.695L7.65858 13.7125C7.77108 13.8125 7.91108 13.8675 8.05608 13.8675C8.20858 13.8675 8.36108 13.805 8.47108 13.695L12.2086 9.955C12.3886 9.7875 12.4436 9.53 12.3536 9.3125C12.2661 9.09 12.0486 8.94 11.8161 8.94L10.2011 8.92V0.5875C10.2011 0.2625 9.93608 0 9.61358 0H6.40108C6.07608 0 5.81358 0.265 5.81358 0.5875V8.8625L4.20608 8.8425C3.97358 8.8425 3.76358 8.98 3.66358 9.2C3.56858 9.4275 3.62358 9.69 3.79108 9.845L7.63858 13.695Z" fill="url(#paint1_linear_0_294)"/>
<defs>
<linearGradient id="paint0_linear_0_294" x1="8.00375" y1="15.995" x2="8.00375" y2="12.6875" gradientUnits="userSpaceOnUse">
<stop stop-color="#1439BF"/>
<stop offset="1" stop-color="#030B39"/>
</linearGradient>
<linearGradient id="paint1_linear_0_294" x1="8.00664" y1="13.8675" x2="8.00664" y2="0" gradientUnits="userSpaceOnUse">
<stop stop-color="#1439BF"/>
<stop offset="1" stop-color="#030B39"/>
</linearGradient>
</defs>
</svg>
