<svg width="32" height="32" viewBox="0 0 32 32" fill="none" xmlns="http://www.w3.org/2000/svg">
<g clip-path="url(#clip0_0_222)">
<path d="M17.4838 9.57875V8.42375C17.4838 8.24375 17.3338 8.09375 17.1538 8.09375H14.8438C14.6638 8.09375 14.5188 8.24375 14.5188 8.42375V9.57875C13.8038 9.74375 13.1237 10.0237 12.5037 10.4137L11.6887 9.59875C11.6584 9.56788 11.6222 9.54336 11.5823 9.52662C11.5424 9.50989 11.4995 9.50127 11.4563 9.50127C11.413 9.50127 11.3701 9.50989 11.3302 9.52662C11.2903 9.54336 11.2541 9.56788 11.2238 9.59875L9.59375 11.2288C9.46375 11.3538 9.46375 11.5637 9.59375 11.6937L10.4087 12.5087C10.0187 13.1287 9.73875 13.8038 9.57375 14.5238H8.41875C8.23875 14.5238 8.09375 14.6688 8.09375 14.8488V17.1588C8.09375 17.3388 8.23875 17.4837 8.41875 17.4837H9.57375C9.73875 18.2037 10.0187 18.8788 10.4087 19.4988L9.59375 20.3137C9.46375 20.4437 9.46375 20.6487 9.59375 20.7787L11.2238 22.4088C11.3538 22.5388 11.5587 22.5388 11.6887 22.4088L12.5037 21.5987C13.1237 21.9887 13.8038 22.2687 14.5188 22.4287V23.5837C14.5188 23.7638 14.6638 23.9137 14.8438 23.9137H17.1538C17.3338 23.9137 17.4838 23.7638 17.4838 23.5837V22.4287C18.1988 22.2687 18.8737 21.9887 19.4987 21.5987L20.3138 22.4088C20.4388 22.5388 20.6487 22.5388 20.7737 22.4088L22.4087 20.7787C22.4689 20.7163 22.5026 20.633 22.5026 20.5462C22.5026 20.4595 22.4689 20.3762 22.4087 20.3137L21.5937 19.4988C21.9837 18.8788 22.2638 18.2037 22.4288 17.4837H23.5787C23.7587 17.4837 23.9087 17.3388 23.9087 17.1588V14.8488C23.9087 14.6688 23.7587 14.5238 23.5787 14.5238H22.4288C22.2638 13.8038 21.9837 13.1287 21.5937 12.5087L22.4087 11.6937C22.4689 11.6313 22.5026 11.548 22.5026 11.4613C22.5026 11.3745 22.4689 11.2912 22.4087 11.2288L20.7737 9.59875C20.7439 9.5679 20.7082 9.54337 20.6687 9.52662C20.6291 9.50987 20.5867 9.50124 20.5437 9.50124C20.5008 9.50124 20.4584 9.50987 20.4188 9.52662C20.3793 9.54337 20.3436 9.5679 20.3138 9.59875L19.4987 10.4137C18.8781 10.0254 18.1971 9.74322 17.4838 9.57875ZM19.5988 16.0037C19.5988 17.9887 17.9837 19.5987 15.9987 19.5987C14.0187 19.5987 12.4037 17.9887 12.4037 16.0037C12.4037 14.0187 14.0187 12.4087 15.9987 12.4087C17.9837 12.4087 19.5988 14.0187 19.5988 16.0037Z" fill="url(#paint0_linear_0_222)"/>
<path d="M29.875 13.87C29.38 13.87 28.92 14.045 28.555 14.335L26.055 11.835V8.3C26.4521 8.25329 26.8281 8.09576 27.1399 7.84543C27.4517 7.5951 27.6868 7.26207 27.8182 6.88443C27.9497 6.50679 27.9722 6.09978 27.8832 5.70995C27.7942 5.32012 27.5973 4.96319 27.315 4.68C27.0318 4.39771 26.6749 4.20081 26.285 4.11182C25.8952 4.02283 25.4882 4.04535 25.1106 4.17679C24.7329 4.30823 24.3999 4.5433 24.1496 4.85511C23.8992 5.16691 23.7417 5.54288 23.695 5.94H20.16L17.665 3.45C17.955 3.085 18.13 2.63 18.13 2.13C18.13 0.955 17.175 0 16 0C14.83 0 13.875 0.955 13.875 2.13C13.875 2.625 14.05 3.085 14.335 3.445L11.835 5.945H8.305C8.25829 5.54788 8.10076 5.17191 7.85043 4.86011C7.6001 4.5483 7.26707 4.31323 6.88943 4.18179C6.51179 4.05035 6.10478 4.02783 5.71495 4.11682C5.32512 4.20581 4.96819 4.40271 4.685 4.685C4.28867 5.08564 4.06637 5.62645 4.06637 6.19C4.06637 6.75355 4.28867 7.29436 4.685 7.695C5.04 8.05 5.49 8.255 5.95 8.305V11.835L3.45 14.335C3.07571 14.0343 2.61009 13.8703 2.13 13.87C0.955 13.87 0 14.825 0 16C0 17.175 0.955 18.13 2.13 18.13C2.625 18.13 3.085 17.955 3.445 17.665L5.95 20.17V23.695C5.49 23.745 5.04 23.95 4.685 24.305C4.285 24.705 4.065 25.24 4.065 25.81C4.065 26.375 4.285 26.91 4.685 27.315C5.1 27.73 5.645 27.935 6.19 27.935C6.735 27.935 7.28 27.73 7.695 27.315C8.05 26.96 8.25 26.515 8.305 26.055H11.835L14.335 28.555C14.05 28.915 13.875 29.375 13.875 29.87C13.875 31.045 14.83 32 16 32C17.175 32 18.13 31.045 18.13 29.87C18.13 29.37 17.955 28.915 17.665 28.55L20.16 26.055H23.695C23.75 26.515 23.95 26.96 24.305 27.315C24.72 27.73 25.265 27.935 25.81 27.935C26.355 27.935 26.9 27.73 27.315 27.315C27.715 26.91 27.94 26.375 27.94 25.81C27.94 25.24 27.715 24.705 27.315 24.305C26.96 23.95 26.515 23.75 26.055 23.695V20.16L28.555 17.66C28.92 17.95 29.38 18.125 29.875 18.125C31.045 18.125 32 17.17 32 15.995C32 14.82 31.045 13.87 29.875 13.87ZM25.565 19.955L19.965 25.56H12.035L6.44 19.96V12.04L12.04 6.44H19.96L25.565 12.045V19.955ZM23.695 6.44C23.75 6.9 23.955 7.345 24.305 7.695C24.66 8.05 25.105 8.25 25.565 8.305V11.345L20.655 6.44H23.695ZM14.685 3.79C15.045 4.08 15.505 4.255 16 4.255C16.5 4.255 16.955 4.085 17.315 3.795L19.465 5.945H12.53L14.685 3.79ZM11.34 6.44L6.44 11.345V8.305C6.9 8.25 7.345 8.045 7.695 7.695C8.045 7.345 8.25 6.9 8.305 6.44H11.34ZM3.795 17.315C4.085 16.955 4.255 16.5 4.255 16C4.255 15.505 4.085 15.05 3.795 14.69L5.95 12.535V19.47L3.795 17.315ZM8.305 25.56C8.25 25.1 8.045 24.655 7.695 24.305C7.345 23.955 6.9 23.75 6.44 23.695V20.66L11.34 25.56H8.305ZM17.32 28.205C16.9445 27.9072 16.4793 27.7451 16 27.745C15.505 27.745 15.045 27.92 14.685 28.21L12.53 26.055H19.47L17.32 28.205ZM20.655 25.56L25.565 20.655V23.695C25.105 23.75 24.66 23.95 24.305 24.305C23.955 24.655 23.75 25.1 23.695 25.56H20.655ZM26.055 19.465V12.535L28.205 14.685C27.915 15.045 27.745 15.5 27.745 16C27.745 16.5 27.915 16.955 28.205 17.315L26.055 19.465Z" fill="url(#paint1_linear_0_222)"/>
</g>
<defs>
<linearGradient id="paint0_linear_0_222" x1="16.0012" y1="23.9137" x2="16.0012" y2="8.09375" gradientUnits="userSpaceOnUse">
<stop stop-color="#1439BF"/>
<stop offset="1" stop-color="#030B39"/>
</linearGradient>
<linearGradient id="paint1_linear_0_222" x1="16" y1="32" x2="16" y2="0" gradientUnits="userSpaceOnUse">
<stop stop-color="#1439BF"/>
<stop offset="1" stop-color="#030B39"/>
</linearGradient>
<clipPath id="clip0_0_222">
<rect width="32" height="32" fill="white"/>
</clipPath>
</defs>
</svg>
