<svg width="32" height="32" viewBox="0 0 32 32" fill="none" xmlns="http://www.w3.org/2000/svg">
<g clip-path="url(#clip0_0_389)">
<path d="M31.5553 17.28C31.3127 16.9042 30.9794 16.5955 30.5862 16.3823C30.193 16.1691 29.7525 16.0583 29.3053 16.06C28.7903 16.06 28.2853 16.21 27.8503 16.49C27.3109 16.8417 26.9161 17.3757 26.738 17.9945C26.5599 18.6132 26.6104 19.2754 26.8803 19.86L23.7953 21.955C23.1477 21.0372 22.2699 20.3061 21.2503 19.835L23.8253 12.515C24.3653 12.67 24.9353 12.75 25.5203 12.75C26.9403 12.75 28.2603 12.285 29.3203 11.49C29.3453 11.47 29.3653 11.455 29.3853 11.435C30.9053 10.27 31.8903 8.44 31.8903 6.37C31.8903 2.86 29.0303 0 25.5203 0C22.8753 0 20.6003 1.615 19.6353 3.915L17.9103 3.195C18.0153 2.625 17.9303 2.04 17.6553 1.515C17.4975 1.20309 17.2792 0.925728 17.013 0.699095C16.7469 0.472462 16.4383 0.301098 16.1053 0.195C15.8403 0.105 15.5603 0.065 15.2853 0.065C14.8703 0.065 14.4503 0.165 14.0703 0.355C13.4353 0.68 12.9703 1.23 12.7503 1.91C12.5303 2.59 12.5903 3.305 12.9153 3.94C13.2403 4.575 13.7903 5.045 14.4703 5.265C14.7353 5.35 15.0103 5.395 15.2853 5.395C15.7053 5.395 16.1203 5.29 16.5003 5.1C16.9987 4.84409 17.4044 4.43841 17.6603 3.94L19.3803 4.655C19.2203 5.2 19.1403 5.775 19.1403 6.37C19.1403 7.12 19.2703 7.835 19.5053 8.5L13.5753 11.085C12.5253 9.01 10.3703 7.585 7.89026 7.585C7.07526 7.585 6.28526 7.74 5.56526 8.025L4.10526 5.03C4.59026 4.74 4.96526 4.295 5.18526 3.755C5.32062 3.42834 5.38987 3.07809 5.38901 2.7245C5.38815 2.37091 5.3172 2.021 5.18026 1.695C4.97842 1.20373 4.63462 0.783827 4.19284 0.489009C3.75106 0.194191 3.23138 0.0378559 2.70026 0.04C2.34526 0.04 1.99526 0.11 1.66526 0.25C0.290261 0.815 -0.359739 2.4 0.215261 3.77C0.349336 4.09761 0.547569 4.39509 0.7983 4.64497C1.04903 4.89484 1.3472 5.09205 1.67526 5.225C2.21691 5.45116 2.81821 5.4916 3.38526 5.34L4.85526 8.35C2.87026 9.435 1.51526 11.54 1.51526 13.95C1.51526 16.01 2.50026 17.85 4.02526 19.015C4.04526 19.035 4.07026 19.055 4.09526 19.07C5.15526 19.86 6.47026 20.325 7.89026 20.325C9.30526 20.325 10.6203 19.86 11.6803 19.07C11.71 19.0545 11.7371 19.0343 11.7603 19.01C11.8453 18.945 11.9253 18.88 12.0003 18.81L13.9753 21.235C12.8484 22.4188 12.22 23.9906 12.2203 25.625C12.2203 26.03 12.2603 26.425 12.3353 26.815L9.92026 27.345C9.70118 26.7423 9.27392 26.2378 8.71557 25.9224C8.15721 25.607 7.50453 25.5015 6.87526 25.625C6.17526 25.765 5.57026 26.17 5.17026 26.77C4.97476 27.0614 4.83878 27.3885 4.77014 27.7326C4.70149 28.0767 4.70153 28.4309 4.77026 28.775C5.02526 30.03 6.12526 30.935 7.40026 30.935C7.58026 30.935 7.75026 30.915 7.92526 30.88C8.62526 30.74 9.23526 30.335 9.63026 29.74C9.95526 29.255 10.1103 28.685 10.0753 28.11L12.5303 27.575C12.9303 28.825 13.7103 29.905 14.7253 30.68L14.7303 30.685C14.7603 30.705 14.7903 30.73 14.8203 30.75C15.8803 31.535 17.1853 31.995 18.5953 31.995C20.0103 31.995 21.3253 31.53 22.3853 30.74C22.415 30.7245 22.4421 30.7043 22.4653 30.68C23.9853 29.515 24.9653 27.685 24.9653 25.62C24.9653 24.535 24.6953 23.51 24.2103 22.615L27.3103 20.51C27.5612 20.794 27.8698 21.0212 28.2156 21.1764C28.5614 21.3316 28.9363 21.4113 29.3153 21.41C29.8303 21.41 30.3353 21.255 30.7703 20.975C31.3703 20.59 31.7803 19.985 31.9303 19.285C32.0853 18.59 31.9503 17.875 31.5553 17.28ZM20.3503 27.065C20.8453 26.6 21.1503 25.94 21.1503 25.21C21.1503 23.805 20.0003 22.655 18.5953 22.655C17.918 22.6563 17.2689 22.9259 16.7901 23.4048C16.3112 23.8837 16.0416 24.5328 16.0403 25.21C16.0403 25.94 16.3453 26.595 16.8403 27.065C15.6053 27.48 14.8853 28.335 14.6803 29.6C13.9699 28.9059 13.4588 28.0339 13.2003 27.075C13.2003 27.06 13.1953 27.045 13.1953 27.035C13.1916 27.0125 13.1849 26.9906 13.1753 26.97C13.1703 26.965 13.1703 26.96 13.1703 26.955C13.0653 26.53 13.0103 26.085 13.0103 25.625C13.0103 22.545 15.5153 20.035 18.6003 20.035C19.3153 20.035 20.0003 20.17 20.6303 20.415L20.6353 20.42H20.6403C21.7803 20.87 22.7353 21.685 23.3703 22.715C23.9049 23.5914 24.1869 24.5984 24.1853 25.625C24.1853 27.18 23.5453 28.585 22.5153 29.605C22.3153 28.335 21.5853 27.48 20.3503 27.065ZM5.55026 8.88C6.26526 8.55 7.05526 8.365 7.89526 8.365C10.1953 8.365 12.1703 9.76 13.0303 11.745V11.755C13.0303 11.76 13.0353 11.76 13.0353 11.765C13.3253 12.44 13.4853 13.18 13.4853 13.955C13.4853 15.51 12.8453 16.915 11.8153 17.935C11.6153 16.665 10.8903 15.815 9.65026 15.395C10.1453 14.935 10.4503 14.275 10.4503 13.545C10.4503 12.135 9.30026 10.99 7.89526 10.99C6.48526 10.99 5.34026 12.135 5.34026 13.545C5.34026 14.275 5.64526 14.93 6.14026 15.4C4.90526 15.815 4.18526 16.665 3.98026 17.93C3.45063 17.4125 3.02999 16.7941 2.74317 16.1114C2.45635 15.4287 2.30915 14.6955 2.31026 13.955C2.30526 11.71 3.64026 9.77 5.55026 8.88ZM25.5203 0.785C28.5953 0.785 31.1053 3.29 31.1053 6.375C31.1053 7.925 30.4653 9.335 29.4403 10.35C29.2353 9.08 28.5103 8.235 27.2753 7.82C27.7703 7.355 28.0753 6.695 28.0753 5.965C28.0753 4.555 26.9253 3.41 25.5203 3.41C24.1103 3.41 22.9653 4.555 22.9653 5.965C22.9653 6.695 23.2703 7.35 23.7653 7.82C22.5303 8.235 21.8103 9.085 21.6053 10.35C21.0803 9.83917 20.6621 9.22899 20.3753 8.555V8.55C19.8455 7.29214 19.7921 5.88433 20.2253 4.59C20.2353 4.565 20.2403 4.54 20.2503 4.515C21.0153 2.345 23.0903 0.785 25.5203 0.785ZM12.5753 18.27C13.6253 17.135 14.2653 15.62 14.2653 13.955C14.2653 13.2 14.1353 12.48 13.8953 11.81V11.805L19.8203 9.22C20.2553 10.09 20.8903 10.85 21.6603 11.43C21.6753 11.45 21.7003 11.465 21.7203 11.485C22.1403 11.795 22.5953 12.06 23.0853 12.26L20.5153 19.55C19.5045 19.2315 18.4303 19.1699 17.3897 19.3707C16.3491 19.5715 15.375 20.0283 14.5553 20.7L12.5753 18.27Z" fill="url(#paint0_linear_0_389)"/>
</g>
<defs>
<linearGradient id="paint0_linear_0_389" x1="15.9994" y1="31.995" x2="15.9994" y2="0" gradientUnits="userSpaceOnUse">
<stop stop-color="#1439BF"/>
<stop offset="1" stop-color="#030B39"/>
</linearGradient>
<clipPath id="clip0_0_389">
<rect width="32" height="32" fill="white"/>
</clipPath>
</defs>
</svg>
