<svg width="32" height="32" viewBox="0 0 32 32" fill="none" xmlns="http://www.w3.org/2000/svg">
<g clip-path="url(#clip0_0_181)">
<path d="M9.02741 27.8278H7.44741C7.15241 27.8278 6.91241 27.5878 6.91241 27.2928V14.7978L7.95241 16.1578C8.02741 16.2528 8.14241 16.3128 8.26241 16.3128C8.34741 16.3128 8.43241 16.2828 8.50241 16.2328C8.67241 16.1028 8.70741 15.8528 8.57741 15.6828L6.83241 13.4028C6.82671 13.3966 6.81993 13.3916 6.81241 13.3878C6.79241 13.3628 6.76241 13.3428 6.73741 13.3228C6.71741 13.3078 6.70241 13.2928 6.68241 13.2878C6.63241 13.2678 6.57741 13.2528 6.52241 13.2528H6.51741C6.50741 13.2528 6.50241 13.2578 6.49241 13.2578C6.44241 13.2628 6.39741 13.2728 6.35741 13.2928L6.31241 13.3228C6.28241 13.3428 6.25241 13.3678 6.22741 13.3978C6.22241 13.4028 6.21241 13.4078 6.20741 13.4178L4.58741 15.6978C4.52741 15.7828 4.50241 15.8878 4.52241 15.9928C4.54241 16.0978 4.59741 16.1878 4.68241 16.2478C4.7244 16.2781 4.77196 16.2998 4.82235 16.3117C4.87275 16.3235 4.92499 16.3253 4.97608 16.317C5.02718 16.3086 5.07612 16.2902 5.1201 16.2629C5.16409 16.2356 5.20225 16.1999 5.23241 16.1578L6.13741 14.8828V27.3078C6.13741 28.0378 6.73241 28.6278 7.45741 28.6278H9.04241C9.25741 28.6278 9.43241 28.4528 9.43241 28.2378C9.42241 28.0078 9.24241 27.8278 9.02741 27.8278ZM25.4224 25.2978C25.2074 25.2978 25.0324 25.4728 25.0324 25.6878V27.1678C25.0324 27.5328 24.7374 27.8278 24.3724 27.8278H12.0474L13.3074 26.7728C13.3863 26.705 13.4356 26.6091 13.445 26.5055C13.4543 26.4018 13.4229 26.2987 13.3574 26.2178C13.3247 26.1783 13.2844 26.1457 13.239 26.1217C13.1936 26.0978 13.1439 26.0831 13.0928 26.0785C13.0417 26.0738 12.9902 26.0793 12.9412 26.0947C12.8922 26.11 12.8467 26.1349 12.8074 26.1678L10.7224 27.9128C10.7174 27.9178 10.7174 27.9228 10.7124 27.9278C10.6824 27.9528 10.6624 27.9828 10.6424 28.0178C10.6324 28.0328 10.6224 28.0428 10.6174 28.0578C10.5974 28.1078 10.5824 28.1578 10.5824 28.2178C10.5824 28.2228 10.5874 28.2328 10.5874 28.2378C10.5924 28.2878 10.6024 28.3328 10.6174 28.3728L10.6474 28.4178C10.6674 28.4478 10.6874 28.4778 10.7124 28.5028C10.7174 28.5078 10.7174 28.5128 10.7224 28.5178L12.8074 30.1978C12.8774 30.2528 12.9624 30.2878 13.0524 30.2878C13.1334 30.2882 13.2126 30.2634 13.2789 30.2167C13.3451 30.1701 13.3952 30.1039 13.4222 30.0275C13.4491 29.951 13.4516 29.8681 13.4292 29.7902C13.4069 29.7123 13.3608 29.6433 13.2974 29.5928L12.0774 28.6078H24.3674C25.1674 28.6078 25.8124 27.9578 25.8124 27.1628V25.6828C25.8124 25.4728 25.6374 25.2978 25.4224 25.2978ZM6.57741 12.1928C6.79241 12.1928 6.96741 12.0178 6.96741 11.8028V10.4428C6.96741 10.0228 7.30741 9.68281 7.72741 9.68281H19.8824L18.6324 10.7378C18.5712 10.7902 18.5275 10.8601 18.5072 10.938C18.4868 11.016 18.4908 11.0983 18.5185 11.1739C18.5463 11.2495 18.5965 11.3148 18.6624 11.3611C18.7283 11.4074 18.8069 11.4324 18.8874 11.4328C18.9774 11.4328 19.0674 11.3978 19.1424 11.3428L21.2124 9.59781C21.2224 9.59281 21.2224 9.58281 21.2324 9.57281C21.2574 9.54781 21.2774 9.52781 21.2924 9.49781C21.3024 9.48281 21.3074 9.46781 21.3174 9.45281C21.3224 9.44281 21.3324 9.43281 21.3324 9.42281C21.3374 9.40281 21.3374 9.38281 21.3424 9.36281C21.3424 9.35281 21.3524 9.34281 21.3524 9.33281V9.31781C21.3524 9.27281 21.3524 9.22281 21.3374 9.18281C21.3374 9.17781 21.3324 9.17781 21.3324 9.17281C21.3177 9.13096 21.2957 9.09203 21.2674 9.05781C21.2624 9.05281 21.2624 9.04781 21.2624 9.04281C21.2574 9.03781 21.2474 9.03281 21.2424 9.02781C21.2274 9.01281 21.2174 8.99781 21.1974 8.98281L19.0274 7.33781C18.9574 7.28781 18.8774 7.25781 18.7924 7.25781C18.6674 7.25781 18.5524 7.31281 18.4774 7.41281C18.4124 7.49781 18.3874 7.59781 18.4024 7.70281C18.4174 7.80781 18.4724 7.89781 18.5524 7.96281L19.7924 8.90281H7.73241C6.88241 8.90281 6.18741 9.59781 6.18741 10.4478V11.8078C6.18741 12.0178 6.36241 12.1928 6.57741 12.1928ZM27.0974 21.2878C26.9774 21.2878 26.8674 21.3428 26.7924 21.4328L25.8124 22.6328V10.1878C25.8124 9.47781 25.2324 8.89781 24.5224 8.89781H22.9074C22.6924 8.89781 22.5174 9.07281 22.5174 9.28781C22.5174 9.50281 22.6924 9.68281 22.9074 9.68281H24.5224C24.8024 9.68281 25.0274 9.90781 25.0274 10.1878V22.5978L24.1124 21.4378C24.0754 21.3911 24.0282 21.3533 23.9746 21.3273C23.9209 21.3014 23.862 21.2879 23.8024 21.2878C23.7149 21.2869 23.6298 21.317 23.5624 21.3728C23.3924 21.5078 23.3624 21.7528 23.4974 21.9228L25.1124 23.9728C25.1174 23.9778 25.1224 23.9828 25.1324 23.9878C25.1574 24.0128 25.1824 24.0328 25.2124 24.0528C25.2274 24.0628 25.2424 24.0778 25.2574 24.0828C25.3024 24.1028 25.3474 24.1128 25.4024 24.1178C25.4074 24.1178 25.4124 24.1228 25.4174 24.1228C25.4724 24.1228 25.5274 24.1078 25.5774 24.0878C25.5924 24.0828 25.6074 24.0678 25.6224 24.0578C25.6524 24.0378 25.6824 24.0178 25.7074 23.9928C25.7124 23.9878 25.7174 23.9878 25.7224 23.9828L27.3974 21.9328C27.5324 21.7678 27.5074 21.5178 27.3424 21.3828C27.2766 21.3199 27.1884 21.2858 27.0974 21.2878ZM11.5524 21.5078L10.9424 22.1128C10.9137 22.1418 10.8909 22.1761 10.8755 22.2138C10.86 22.2516 10.8522 22.292 10.8524 22.3328C10.8524 22.4178 10.8824 22.4978 10.9424 22.5578L12.2224 23.8378C12.3424 23.9578 12.5324 23.9578 12.6574 23.8378L13.2674 23.2228C13.7374 23.5128 14.2474 23.7278 14.7874 23.8528V24.7178C14.7874 24.8878 14.9274 25.0228 15.0924 25.0228H16.9024C17.0724 25.0228 17.2074 24.8828 17.2074 24.7178V23.8528C17.7424 23.7278 18.2524 23.5178 18.7274 23.2278L19.3324 23.8328C19.4524 23.9528 19.6524 23.9528 19.7724 23.8378L21.0524 22.5578C21.1074 22.4978 21.1424 22.4178 21.1424 22.3328C21.1424 22.2528 21.1074 22.1728 21.0524 22.1178L20.4374 21.5078C20.7274 21.0328 20.9424 20.5278 21.0674 19.9878H21.9324C22.1024 19.9878 22.2374 19.8478 22.2374 19.6828V17.8728C22.2374 17.7028 22.0974 17.5678 21.9324 17.5678H21.0674C20.9424 17.0278 20.7324 16.5178 20.4374 16.0478L21.0474 15.4378C21.0772 15.4096 21.101 15.3756 21.1174 15.338C21.1338 15.3004 21.1425 15.2599 21.143 15.2189C21.1435 15.1778 21.1357 15.1371 21.1201 15.0992C21.1046 15.0612 21.0815 15.0267 21.0524 14.9978L19.7724 13.7178C19.7141 13.6613 19.6361 13.6297 19.5549 13.6297C19.4737 13.6297 19.3957 13.6613 19.3374 13.7178L18.7274 14.3278C18.2524 14.0378 17.7474 13.8278 17.2074 13.6978V12.8378C17.2074 12.6678 17.0674 12.5328 16.9024 12.5328H15.0974C14.9274 12.5328 14.7924 12.6728 14.7924 12.8378V13.6978C14.2524 13.8278 13.7424 14.0328 13.2724 14.3278L12.6624 13.7178C12.6047 13.6602 12.5265 13.6279 12.4449 13.6279C12.3634 13.6279 12.2851 13.6602 12.2274 13.7178L10.9474 14.9978C10.8874 15.0578 10.8574 15.1328 10.8574 15.2178C10.8574 15.3028 10.8874 15.3778 10.9474 15.4378L11.5574 16.0478C11.2724 16.5178 11.0574 17.0278 10.9274 17.5678H10.0674C9.89741 17.5678 9.76241 17.7078 9.76241 17.8728V19.6828C9.76241 19.8528 9.90241 19.9878 10.0674 19.9878H10.9274C11.0524 20.5228 11.2624 21.0328 11.5524 21.5078ZM13.2324 18.7728C13.2324 17.2478 14.4724 16.0078 15.9974 16.0078C17.5224 16.0078 18.7674 17.2478 18.7674 18.7728C18.7674 20.2978 17.5224 21.5428 15.9974 21.5428C14.4724 21.5428 13.2324 20.2978 13.2324 18.7728Z" fill="url(#paint0_linear_0_181)"/>
<path d="M30.75 0.101562H1.25C0.56 0.101562 0 0.661563 0 1.34656V30.6516C0 31.3416 0.56 31.9016 1.255 31.9016H30.755C31.0865 31.9016 31.4045 31.7699 31.6389 31.5354C31.8733 31.301 32.005 30.9831 32.005 30.6516V1.34656C32.0018 1.01562 31.8683 0.699267 31.6333 0.46618C31.3984 0.233092 31.081 0.102074 30.75 0.101562ZM30.75 31.1216H1.25C0.995 31.1216 0.785 30.9116 0.785 30.6566V6.27656H31.215V30.6516C31.22 30.9066 31.005 31.1216 30.75 31.1216ZM3.215 3.26156C3.215 3.12656 3.325 3.01656 3.46 3.01656H4.9C5.035 3.01656 5.145 3.12656 5.145 3.26156C5.14 3.39656 5.035 3.50156 4.9 3.50156H3.46C3.325 3.50156 3.215 3.39656 3.215 3.26156ZM6.025 3.26156C6.025 3.12656 6.135 3.01656 6.27 3.01656H7.71C7.85 3.01656 7.96 3.12656 7.96 3.26156C7.96 3.39656 7.85 3.50656 7.71 3.50656H6.27C6.2053 3.50566 6.14351 3.47955 6.09776 3.4338C6.05201 3.38805 6.02591 3.32626 6.025 3.26156ZM8.83 3.26156C8.83 3.12656 8.94 3.01656 9.075 3.01656H10.52C10.585 3.01656 10.6473 3.04238 10.6932 3.08832C10.7392 3.13427 10.765 3.19658 10.765 3.26156C10.765 3.32654 10.7392 3.38886 10.6932 3.4348C10.6473 3.48075 10.585 3.50656 10.52 3.50656H9.075C9.0103 3.50566 8.94851 3.47955 8.90276 3.4338C8.85701 3.38805 8.8309 3.32626 8.83 3.26156ZM14.645 3.26156C14.6463 3.19613 14.6732 3.13382 14.72 3.08801C14.7667 3.0422 14.8296 3.01655 14.895 3.01656H28.55C28.685 3.01656 28.795 3.12656 28.795 3.26156C28.79 3.39656 28.68 3.50156 28.55 3.50156H14.89C14.755 3.50156 14.645 3.39656 14.645 3.26156Z" fill="url(#paint1_linear_0_181)"/>
</g>
<defs>
<linearGradient id="paint0_linear_0_181" x1="16" y1="30.2878" x2="16" y2="7.25781" gradientUnits="userSpaceOnUse">
<stop stop-color="#1439BF"/>
<stop offset="1" stop-color="#030B39"/>
</linearGradient>
<linearGradient id="paint1_linear_0_181" x1="16.0025" y1="31.9016" x2="16.0025" y2="0.101562" gradientUnits="userSpaceOnUse">
<stop stop-color="#1439BF"/>
<stop offset="1" stop-color="#030B39"/>
</linearGradient>
<clipPath id="clip0_0_181">
<rect width="32" height="32" fill="white"/>
</clipPath>
</defs>
</svg>
