<svg width="218" height="20" viewBox="0 0 218 20" fill="none" xmlns="http://www.w3.org/2000/svg">
<path fill-rule="evenodd" clip-rule="evenodd" d="M1.00452 0H7.72445C7.95208 0 8.14506 0.127166 8.23413 0.332588C8.31826 0.5429 8.27372 0.767886 8.11537 0.924398L6.12117 2.89058L5.60654 2.38191H5.58674V3.99105H7.21477V3.97149L6.72487 3.48728L9.76814 0.474426C10.0898 0.161403 10.4758 0 10.931 0H11.1289C11.3566 0 11.5496 0.127166 11.6337 0.332588C11.7228 0.5429 11.6782 0.767886 11.5149 0.924398L5.94798 6.43166L5.43334 5.92299H5.41355V7.52724H7.03662V7.50768L6.54673 7.02347L13.1726 0.474426C13.4893 0.161403 13.8803 0 14.3355 0H14.4097C14.6374 0 14.8303 0.127166 14.9145 0.332588C15.0035 0.538009 14.959 0.762995 14.7957 0.924398L5.88859 9.75264L5.37396 9.24398H5.35417V10.8482H6.98219V10.8287L6.48735 10.3445L16.4485 0.479317C16.7652 0.161403 17.1561 0 17.6114 0H18.3734C18.9276 0 19.3779 0.44508 19.3779 0.992872V18.3755C19.3779 18.9233 18.9276 19.3683 18.3734 19.3683H12.1483C11.9207 19.3683 11.7277 19.2412 11.6436 19.0357C11.5545 18.8303 11.604 18.6053 11.7623 18.4439L12.9945 17.2261L13.5091 17.7347H13.5289V16.1305H11.9009V16.1501L12.3957 16.6343L10.1888 18.8157C9.81267 19.1825 9.35742 19.3683 8.83289 19.3683H8.74382C8.52114 19.3683 8.32815 19.2412 8.23908 19.0357C8.15496 18.8303 8.1995 18.6053 8.35784 18.4439L13.1677 13.6899L13.6823 14.1986H13.7021V12.5943H12.079V12.6139L12.5689 13.0981L6.70508 18.8939C6.38343 19.2118 5.99251 19.3683 5.54221 19.3683H5.46303C5.23541 19.3683 5.04242 19.2412 4.9583 19.0357C4.86922 18.8303 4.91376 18.6053 5.07706 18.4488L13.2271 10.3689L13.7417 10.8776H13.7615V9.27332H12.1384V9.288L12.6283 9.77221L3.42429 18.8939C3.10759 19.2118 2.71667 19.3683 2.26142 19.3683H1.00452C0.450304 19.3683 0 18.9233 0 18.3755V0.992872C0 0.44508 0.450304 0 1.00452 0V0Z" fill="white"/>
<path d="M30.2393 11.1285L37.4929 1.92674H40.7943V18.3784H36.5862V9.3393L29.3326 18.3784H26.0312V1.92674H30.2393V11.1285Z" fill="white"/>
<path d="M48.1073 8.31688H54.0823V1.92674H58.2903V18.3784H54.0823V12.1742H48.1073V18.3784H43.8993V1.92674H48.1073V8.31688Z" fill="white"/>
<path d="M72.3077 1.29934V3.46037C73.3772 3.46037 74.3769 3.59205 75.3068 3.8554C76.2368 4.10326 77.0428 4.49054 77.7247 5.01724C78.4222 5.52845 78.9647 6.18683 79.3521 6.99238C79.7396 7.79792 79.9334 8.75063 79.9334 9.85051C79.9179 10.9969 79.7319 11.9806 79.3754 12.8016C79.0189 13.6071 78.5074 14.2655 77.841 14.7767C77.19 15.2879 76.3918 15.6675 75.4463 15.9153C74.5164 16.1632 73.4702 16.2871 72.3077 16.2871V18.7967H68.0997V16.2871C66.9838 16.2871 65.9608 16.1632 65.0308 15.9153C64.1009 15.6675 63.2949 15.2879 62.613 14.7767C61.9465 14.2655 61.4273 13.6149 61.0553 12.8248C60.6833 12.0193 60.4973 11.0588 60.4973 9.94346C60.5128 8.8126 60.7066 7.83665 61.0785 7.01561C61.466 6.19458 61.993 5.52071 62.6595 4.99401C63.3259 4.4673 64.1164 4.08002 65.0308 3.83216C65.9608 3.5843 66.9838 3.46037 68.0997 3.46037V1.29934H72.3077ZM68.0997 7.08532C66.9063 7.08532 66.0151 7.34868 65.4261 7.87538C64.8526 8.38659 64.5659 9.05271 64.5659 9.87375C64.5659 10.7413 64.8604 11.4306 65.4493 11.9418C66.0538 12.4376 66.9373 12.6854 68.0997 12.6854V7.08532ZM72.3077 12.6854C73.4702 12.6854 74.3459 12.4376 74.9349 11.9418C75.5393 11.4306 75.8416 10.7413 75.8416 9.87375C75.8416 9.05271 75.5471 8.38659 74.9581 7.87538C74.3846 7.34868 73.5012 7.08532 72.3077 7.08532V12.6854Z" fill="white"/>
<path d="M89.6886 1.71761C90.9286 1.71761 92.06 1.91899 93.083 2.32176C94.1214 2.70905 95.0049 3.26673 95.7333 3.99482C96.4773 4.70742 97.0508 5.58267 97.4537 6.62059C97.8722 7.64301 98.0815 8.78936 98.0815 10.0596C98.0815 11.3144 97.88 12.4685 97.477 13.5219C97.074 14.5599 96.5005 15.4583 95.7566 16.2174C95.0126 16.961 94.1214 17.5419 93.083 17.9602C92.06 18.363 90.9208 18.5643 89.6654 18.5643C88.3789 18.5643 87.2165 18.363 86.1781 17.9602C85.1396 17.5574 84.2484 16.992 83.5044 16.2639C82.776 15.5203 82.2102 14.6296 81.8073 13.5917C81.4198 12.5537 81.226 11.3996 81.226 10.1294C81.226 8.85907 81.4275 7.70497 81.8305 6.66706C82.249 5.62915 82.8302 4.74615 83.5742 4.01806C84.3181 3.28997 85.2094 2.72454 86.2478 2.32176C87.2862 1.91899 88.4332 1.71761 89.6886 1.71761ZM85.5271 10.1061C85.5271 10.6638 85.6046 11.2137 85.7596 11.7559C85.9301 12.2826 86.1858 12.7629 86.5268 13.1966C86.8678 13.6149 87.3017 13.9557 87.8287 14.219C88.3712 14.4669 89.0222 14.5908 89.7816 14.5908C90.4946 14.5908 91.0991 14.4592 91.595 14.1958C92.1065 13.917 92.525 13.5684 92.8505 13.1501C93.176 12.7164 93.4084 12.2439 93.5479 11.7327C93.7029 11.206 93.7804 10.687 93.7804 10.1758C93.7804 9.6956 93.7107 9.19213 93.5712 8.66543C93.4317 8.12324 93.1992 7.63526 92.8737 7.20151C92.5482 6.76775 92.122 6.41146 91.595 6.13261C91.0836 5.83828 90.4558 5.69111 89.7119 5.69111C88.9679 5.69111 88.3247 5.82279 87.7822 6.08614C87.2552 6.34949 86.8213 6.6903 86.4803 7.10856C86.1548 7.52682 85.9146 7.99931 85.7596 8.52601C85.6046 9.05271 85.5271 9.57942 85.5271 10.1061Z" fill="white"/>
<path d="M107.201 1.92674C108.162 1.92674 109.037 2.02743 109.828 2.22882C110.634 2.41471 111.324 2.74003 111.897 3.20477C112.486 3.65401 112.936 4.25043 113.246 4.99401C113.571 5.73759 113.734 6.65932 113.734 7.75919C113.718 8.89006 113.494 9.85826 113.06 10.6638C112.641 11.4693 112.068 12.12 111.339 12.6157C110.766 13.0185 110.107 13.3128 109.363 13.4987C108.619 13.6691 107.844 13.7543 107.038 13.7543H104.504V18.3784H100.296V1.92674H107.201ZM107.038 10.0132C107.844 10.0132 108.464 9.82728 108.898 9.45549C109.347 9.0682 109.58 8.5415 109.595 7.87538C109.611 7.17827 109.417 6.66706 109.014 6.34174C108.611 6.00094 107.945 5.83053 107.015 5.83053H104.504V10.0132H107.038Z" fill="white"/>
<path d="M121.172 1.92674L125.194 9.13017L129.193 1.92674H134.308V18.3784H130.1V7.89861L125.938 15.1253H124.287L120.056 7.89861V18.3784H115.848V1.92674H121.172Z" fill="white"/>
<path d="M140.253 18.3784H135.743L142.346 1.92674H146.623L153.156 18.3784H148.623L147.809 16.0548H141.09L140.253 18.3784ZM146.484 12.2671L144.485 6.62059L142.415 12.2671H146.484Z" fill="white"/>
<path d="M151.528 5.83053V1.92674H165.523V5.83053H160.618V18.3784H156.41V5.83053H151.528Z" fill="white"/>
<path d="M171.413 11.1285L178.666 1.92674H181.968V18.3784H177.759V9.3393L170.506 18.3784H167.205V1.92674H171.413V11.1285Z" fill="white"/>
<path d="M189.281 12.1277V18.3784H185.073V1.92674H189.281V8.24717H191.559L195.116 1.92674H199.905L195.023 9.80404L199.859 18.3784H194.977L191.652 12.1277H189.281Z" fill="white"/>
<path d="M205.096 18.3702H200.585L207.188 1.91847H211.466L217.999 18.3702H213.465L212.652 16.0465H205.933L205.096 18.3702ZM211.326 12.2589L209.327 6.61232L207.258 12.2589H211.326Z" fill="white"/>
</svg>
