<svg width="200" height="201" viewBox="0 0 200 201" fill="none" xmlns="http://www.w3.org/2000/svg">
<path d="M94.1392 128.318L81.5206 115.711L88.6179 108.625L77.5752 97.5932L56.1382 119.008C41.3401 113.632 24.1167 116.873 12.247 128.732C-4.08232 145.05 -4.08232 171.516 12.247 187.834C28.5762 204.153 55.0652 204.153 71.3944 187.834C83.7783 175.462 86.7625 157.266 80.3806 142.077L94.1392 128.329V128.318ZM53.6681 169.795C47.1297 176.322 36.5453 176.322 30.0069 169.795C23.4796 163.268 23.4796 152.684 30.0069 146.156C36.5453 139.629 47.1297 139.629 53.6681 146.156C60.1953 152.684 60.2065 163.268 53.6681 169.795ZM196.731 158.428C201.09 162.776 201.09 169.84 196.731 174.188L177.015 193.892C172.656 198.24 165.603 198.24 161.245 193.892L110.77 143.463L116.292 137.941L122.606 131.638L152.571 156.852L160.462 148.973L135.225 119.03L139.953 114.302L146.268 107.999L196.742 158.428H196.731ZM113.866 99.158L120.963 92.0607L134.364 105.462L110.703 129.101L97.3022 115.7L104.399 108.614L41.3066 45.5765L50.7733 36.1209L113.866 99.158ZM128.295 12.2361C141.171 -0.628318 160.35 -3.34427 175.897 4.06593L150.772 29.1801L153.141 45.733L169.705 48.0913L195.099 22.72C203.169 38.4345 200.62 58.1839 187.443 71.3389C175.16 83.611 157.154 86.6511 142.02 80.4703L133.582 88.9089L120.963 76.3014L113.866 83.3987L102.824 72.3672L118.706 56.4962C113.129 41.6199 116.314 24.2065 128.295 12.2473V12.2361ZM57.077 29.806L34.9917 51.869L9.75455 15.6227L20.7972 4.59124L57.077 29.806Z" fill="url(#paint0_linear_0_40)"/>
<defs>
<linearGradient id="paint0_linear_0_40" x1="198.708" y1="200.073" x2="98.3277" y2="-39.9539" gradientUnits="userSpaceOnUse">
<stop stop-color="white"/>
<stop offset="0.7" stop-color="#504EDE"/>
<stop offset="1" stop-color="#2311BF"/>
</linearGradient>
</defs>
</svg>
