<svg width="200" height="200" viewBox="0 0 200 200" fill="none" xmlns="http://www.w3.org/2000/svg">
<path d="M60.783 78.936C64.605 85.722 64.3276 93.782 60.7396 100.1L82.129 112.753C85.6737 106.409 92.347 102.137 99.9997 102.137C107.652 102.137 114.317 106.409 117.87 112.753L139.251 100.1C135.672 93.782 135.394 85.722 139.216 78.9273C142.9 72.3927 149.478 68.64 156.333 68.3887V43.056C149.478 42.8047 142.9 39.0607 139.216 32.5173C135.68 26.234 135.654 18.8587 138.514 12.7833L117.03 0.0693359C113.32 5.642 107.08 9.30801 99.9997 9.30801C92.919 9.30801 86.679 5.642 82.9697 0.0693359L61.485 12.7833C64.345 18.8587 64.319 26.234 60.783 32.5173C57.0997 39.052 50.5217 42.8047 43.6663 43.056V68.3887C50.5217 68.64 57.0997 72.3927 60.783 78.9273V78.936ZM99.9997 25.7227C116.752 25.7227 130.333 39.3033 130.333 56.056C130.333 72.8087 116.752 86.3893 99.9997 86.3893C83.247 86.3893 69.6663 72.8087 69.6663 56.056C69.6663 39.3033 83.247 25.7227 99.9997 25.7227ZM86.9997 56.056C86.9997 48.88 92.8237 43.056 99.9997 43.056C107.176 43.056 113 48.88 113 56.056C113 63.232 107.176 69.056 99.9997 69.056C92.8237 69.056 86.9997 63.232 86.9997 56.056ZM113 186.931L143.333 191.265V199.931H56.6663V191.265L86.9997 186.931L84.3303 173.065H115.669L113 186.931ZM186.666 43.0647V147.065C186.666 156.485 179.144 164.155 169.784 164.389H169.333H30.6663C21.2457 164.389 13.5757 156.867 13.3417 147.507V147.056L13.333 43.056H34.9997V56.056H26.333V142.723H173.666V56.056H165V43.056H186.666V43.0647Z" fill="url(#paint0_linear_0_119)"/>
<defs>
<linearGradient id="paint0_linear_0_119" x1="185.546" y1="199.931" x2="75.3566" y2="-28.6622" gradientUnits="userSpaceOnUse">
<stop stop-color="white"/>
<stop offset="0.7" stop-color="#504EDE"/>
<stop offset="1" stop-color="#2311BF"/>
</linearGradient>
</defs>
</svg>
